<svg width="250" height="109" viewBox="0 0 250 109" fill="none" xmlns="http://www.w3.org/2000/svg">
<path d="M138.408 71.272L144.216 70.312V77.896H153.144V82.744H144.216V92.968C144.216 94.984 144.536 96.424 145.176 97.288C145.816 98.152 146.904 98.584 148.44 98.584C149.496 98.584 150.424 98.472 151.224 98.248C152.056 98.024 152.712 97.816 153.192 97.624L154.152 102.232C153.48 102.52 152.6 102.808 151.512 103.096C150.424 103.416 149.144 103.576 147.672 103.576C145.88 103.576 144.376 103.336 143.16 102.856C141.976 102.376 141.032 101.688 140.328 100.792C139.624 99.864 139.128 98.76 138.84 97.48C138.552 96.168 138.408 94.68 138.408 93.016V71.272ZM173.063 83.128C172.583 82.968 171.911 82.808 171.047 82.648C170.215 82.456 169.239 82.36 168.119 82.36C167.479 82.36 166.791 82.424 166.055 82.552C165.351 82.68 164.855 82.792 164.567 82.888V103H158.759V79.096C159.879 78.68 161.271 78.296 162.935 77.944C164.631 77.56 166.503 77.368 168.551 77.368C168.935 77.368 169.383 77.4 169.895 77.464C170.407 77.496 170.919 77.56 171.431 77.656C171.943 77.72 172.439 77.816 172.919 77.944C173.399 78.04 173.783 78.136 174.071 78.232L173.063 83.128ZM186.95 98.92C188.742 98.92 190.102 98.824 191.03 98.632V92.2C190.71 92.104 190.246 92.008 189.638 91.912C189.03 91.816 188.358 91.768 187.622 91.768C186.982 91.768 186.326 91.816 185.654 91.912C185.014 92.008 184.422 92.184 183.878 92.44C183.366 92.696 182.95 93.064 182.63 93.544C182.31 93.992 182.15 94.568 182.15 95.272C182.15 96.648 182.582 97.608 183.446 98.152C184.31 98.664 185.478 98.92 186.95 98.92ZM186.47 77.272C188.39 77.272 190.006 77.512 191.318 77.992C192.63 78.472 193.67 79.144 194.438 80.008C195.238 80.872 195.798 81.928 196.118 83.176C196.47 84.392 196.646 85.736 196.646 87.208V102.424C195.75 102.616 194.39 102.84 192.566 103.096C190.774 103.384 188.742 103.528 186.47 103.528C184.966 103.528 183.59 103.384 182.342 103.096C181.094 102.808 180.022 102.344 179.126 101.704C178.262 101.064 177.574 100.232 177.062 99.208C176.582 98.184 176.342 96.92 176.342 95.416C176.342 93.976 176.614 92.76 177.158 91.768C177.734 90.776 178.502 89.976 179.462 89.368C180.422 88.728 181.526 88.28 182.774 88.024C184.054 87.736 185.382 87.592 186.758 87.592C187.398 87.592 188.07 87.64 188.774 87.736C189.478 87.8 190.23 87.928 191.03 88.12V87.16C191.03 86.488 190.95 85.848 190.79 85.24C190.63 84.632 190.342 84.104 189.926 83.656C189.542 83.176 189.014 82.808 188.342 82.552C187.702 82.296 186.886 82.168 185.894 82.168C184.55 82.168 183.318 82.264 182.198 82.456C181.078 82.648 180.166 82.872 179.462 83.128L178.742 78.424C179.478 78.168 180.55 77.912 181.958 77.656C183.366 77.4 184.87 77.272 186.47 77.272ZM202.367 90.472C202.367 88.616 202.655 86.888 203.23 85.288C203.807 83.656 204.623 82.248 205.679 81.064C206.767 79.88 208.079 78.952 209.615 78.28C211.151 77.608 212.879 77.272 214.799 77.272C217.167 77.272 219.407 77.704 221.519 78.568L220.271 83.32C219.599 83.032 218.831 82.792 217.967 82.6C217.135 82.408 216.239 82.312 215.279 82.312C213.007 82.312 211.279 83.032 210.095 84.472C208.911 85.88 208.319 87.88 208.319 90.472C208.319 92.968 208.879 94.952 209.999 96.424C211.119 97.864 213.007 98.584 215.663 98.584C216.655 98.584 217.631 98.488 218.591 98.296C219.551 98.104 220.383 97.864 221.087 97.576L221.903 102.376C221.263 102.696 220.287 102.984 218.975 103.24C217.695 103.496 216.367 103.624 214.991 103.624C212.847 103.624 210.975 103.304 209.375 102.664C207.807 101.992 206.495 101.08 205.439 99.928C204.415 98.744 203.647 97.352 203.135 95.752C202.623 94.12 202.367 92.36 202.367 90.472ZM232.207 87.688C232.943 86.92 233.727 86.104 234.559 85.24C235.391 84.344 236.207 83.464 237.007 82.6C237.807 81.704 238.559 80.856 239.263 80.056C239.999 79.224 240.623 78.504 241.135 77.896H247.999C246.399 79.688 244.703 81.544 242.911 83.464C241.151 85.384 239.375 87.256 237.583 89.08C238.543 89.88 239.551 90.856 240.607 92.008C241.663 93.128 242.687 94.328 243.679 95.608C244.671 96.888 245.599 98.168 246.463 99.448C247.327 100.728 248.047 101.912 248.623 103H241.903C241.327 102.008 240.655 100.968 239.887 99.88C239.151 98.792 238.351 97.736 237.487 96.712C236.623 95.688 235.743 94.728 234.847 93.832C233.951 92.904 233.071 92.12 232.207 91.48V103H226.399V66.712L232.207 65.752V87.688Z" fill="#313638"/>
<path d="M31.872 16.648H41.856V61H31.872V42.184H15.104V61H5.12V16.648H15.104V33.608H31.872V16.648ZM52.12 61V16.648H82.072V25.032H62.104V33.736H79.832V41.928H62.104V52.616H83.544V61H52.12ZM120.629 61C120.159 59.464 119.626 57.8853 119.029 56.264C118.474 54.6427 117.919 53.0213 117.365 51.4H100.085C99.5298 53.0213 98.9538 54.6427 98.3565 56.264C97.8018 57.8853 97.2898 59.464 96.8205 61H86.4525C88.1165 56.2213 89.6952 51.8053 91.1885 47.752C92.6818 43.6987 94.1325 39.88 95.5405 36.296C96.9912 32.712 98.3992 29.32 99.7645 26.12C101.173 22.8773 102.623 19.72 104.117 16.648H113.653C115.103 19.72 116.533 22.8773 117.941 26.12C119.349 29.32 120.757 32.712 122.165 36.296C123.615 39.88 125.087 43.6987 126.581 47.752C128.074 51.8053 129.653 56.2213 131.317 61H120.629ZM108.661 26.696C108.447 27.336 108.127 28.2107 107.701 29.32C107.274 30.4293 106.783 31.7093 106.229 33.16C105.674 34.6107 105.055 36.2107 104.373 37.96C103.733 39.7093 103.071 41.544 102.389 43.464H114.997C114.314 41.544 113.653 39.7093 113.013 37.96C112.373 36.2107 111.754 34.6107 111.157 33.16C110.602 31.7093 110.111 30.4293 109.685 29.32C109.258 28.2107 108.917 27.336 108.661 26.696ZM166.69 52.424V61H137.058V16.648H147.042V52.424H166.69ZM201.016 16.648V25.16H187.64V61H177.656V25.16H164.28V16.648H201.016ZM234.185 16.648H244.169V61H234.185V42.184H217.417V61H207.433V16.648H217.417V33.608H234.185V16.648Z" fill="#E8E9EB"/>
</svg>
