<svg width="312" height="105" viewBox="0 0 312 105" fill="none" xmlns="http://www.w3.org/2000/svg">
<path d="M98.2413 65.0867C124.087 38.7631 108.462 13.4649 90.1923 6.79801C70.791 -0.283082 58.4389 15.8364 58.4389 15.8364C58.4389 15.8364 46.08 -0.283082 26.6787 6.79801C8.40888 13.4649 -7.21621 38.7631 18.6297 65.0867C26.2902 72.8893 33.765 80.0104 40.1285 85.8757" stroke="#FF9F1C" stroke-width="9" stroke-linecap="round" stroke-linejoin="round"/>
<path d="M27.0606 59.5758V62.5758C28.2131 62.5758 29.2637 61.9156 29.7636 60.8773L27.0606 59.5758ZM37.303 38.3031L39.9738 36.9367C39.4548 35.9223 38.4061 35.2895 37.2668 35.3033C36.1275 35.3171 35.0943 35.9751 34.6 37.0017L37.303 38.3031ZM54.6364 72.1819L51.9656 73.5483C52.4726 74.5393 53.4867 75.1681 54.5997 75.1817C55.7128 75.1953 56.7419 74.5915 57.2729 73.6132L54.6364 72.1819ZM69.6061 44.6061L71.9607 42.7472C71.3358 41.9556 70.3549 41.531 69.35 41.6171C68.3451 41.7032 67.4507 42.2885 66.9695 43.1749L69.6061 44.6061ZM81.4243 59.5758L79.0696 61.4348C79.6385 62.1554 80.5061 62.5758 81.4243 62.5758V59.5758ZM218 62.5758C219.657 62.5758 221 61.2327 221 59.5758C221 57.919 219.657 56.5758 218 56.5758V62.5758ZM15.2424 56.5758C13.5856 56.5758 12.2424 57.919 12.2424 59.5758C12.2424 61.2327 13.5856 62.5758 15.2424 62.5758V56.5758ZM29.7636 60.8773L40.006 39.6045L34.6 37.0017L24.3576 58.2744L29.7636 60.8773ZM34.6323 39.6695L51.9656 73.5483L57.3071 70.8155L39.9738 36.9367L34.6323 39.6695ZM57.2729 73.6132L72.2426 46.0374L66.9695 43.1749L51.9998 70.7506L57.2729 73.6132ZM67.2514 46.4651L79.0696 61.4348L83.7789 57.7169L71.9607 42.7472L67.2514 46.4651ZM81.4243 62.5758H218V56.5758H81.4243V62.5758ZM27.0606 56.5758H15.2424V62.5758H27.0606V56.5758Z" fill="#313638"/>
<path d="M39.9597 85.7186C46.9177 92.135 52.5685 97.065 55.7165 99.7705" stroke="#F06543" stroke-width="9" stroke-linecap="round" stroke-linejoin="round"/>
<path d="M9.18567 52.4843C11.3609 56.6094 14.4548 60.8347 18.6296 65.0866C26.2902 72.8892 33.7649 80.0104 40.1285 85.8757" stroke="url(#paint0_linear_316_117)" stroke-width="9" stroke-linecap="round" stroke-linejoin="round"/>
<path d="M225.556 67.204L229.912 66.484V72.172H236.608V75.808H229.912V83.476C229.912 84.988 230.152 86.068 230.632 86.716C231.112 87.364 231.928 87.688 233.08 87.688C233.872 87.688 234.568 87.604 235.168 87.436C235.792 87.268 236.284 87.112 236.644 86.968L237.364 90.424C236.86 90.64 236.2 90.856 235.384 91.072C234.568 91.312 233.608 91.432 232.504 91.432C231.16 91.432 230.032 91.252 229.12 90.892C228.232 90.532 227.524 90.016 226.996 89.344C226.468 88.648 226.096 87.82 225.88 86.86C225.664 85.876 225.556 84.76 225.556 83.512V67.204ZM251.547 76.096C251.187 75.976 250.683 75.856 250.035 75.736C249.411 75.592 248.679 75.52 247.839 75.52C247.359 75.52 246.843 75.568 246.291 75.664C245.763 75.76 245.391 75.844 245.175 75.916V91H240.819V73.072C241.659 72.76 242.703 72.472 243.951 72.208C245.223 71.92 246.627 71.776 248.163 71.776C248.451 71.776 248.787 71.8 249.171 71.848C249.555 71.872 249.939 71.92 250.323 71.992C250.707 72.04 251.079 72.112 251.439 72.208C251.799 72.28 252.087 72.352 252.303 72.424L251.547 76.096ZM261.962 87.94C263.306 87.94 264.326 87.868 265.022 87.724V82.9C264.782 82.828 264.434 82.756 263.978 82.684C263.522 82.612 263.018 82.576 262.466 82.576C261.986 82.576 261.494 82.612 260.99 82.684C260.51 82.756 260.066 82.888 259.658 83.08C259.274 83.272 258.962 83.548 258.722 83.908C258.482 84.244 258.362 84.676 258.362 85.204C258.362 86.236 258.686 86.956 259.334 87.364C259.982 87.748 260.858 87.94 261.962 87.94ZM261.602 71.704C263.042 71.704 264.254 71.884 265.238 72.244C266.222 72.604 267.002 73.108 267.578 73.756C268.178 74.404 268.598 75.196 268.838 76.132C269.102 77.044 269.234 78.052 269.234 79.156V90.568C268.562 90.712 267.542 90.88 266.174 91.072C264.83 91.288 263.306 91.396 261.602 91.396C260.474 91.396 259.442 91.288 258.506 91.072C257.57 90.856 256.766 90.508 256.094 90.028C255.446 89.548 254.93 88.924 254.546 88.156C254.186 87.388 254.006 86.44 254.006 85.312C254.006 84.232 254.21 83.32 254.618 82.576C255.05 81.832 255.626 81.232 256.346 80.776C257.066 80.296 257.894 79.96 258.83 79.768C259.79 79.552 260.786 79.444 261.818 79.444C262.298 79.444 262.802 79.48 263.33 79.552C263.858 79.6 264.422 79.696 265.022 79.84V79.12C265.022 78.616 264.962 78.136 264.842 77.68C264.722 77.224 264.506 76.828 264.194 76.492C263.906 76.132 263.51 75.856 263.006 75.664C262.526 75.472 261.914 75.376 261.17 75.376C260.162 75.376 259.238 75.448 258.398 75.592C257.558 75.736 256.874 75.904 256.346 76.096L255.806 72.568C256.358 72.376 257.162 72.184 258.218 71.992C259.274 71.8 260.402 71.704 261.602 71.704ZM273.525 81.604C273.525 80.212 273.741 78.916 274.173 77.716C274.605 76.492 275.217 75.436 276.009 74.548C276.825 73.66 277.809 72.964 278.961 72.46C280.113 71.956 281.409 71.704 282.849 71.704C284.625 71.704 286.305 72.028 287.889 72.676L286.953 76.24C286.449 76.024 285.873 75.844 285.225 75.7C284.601 75.556 283.929 75.484 283.209 75.484C281.505 75.484 280.209 76.024 279.321 77.104C278.433 78.16 277.989 79.66 277.989 81.604C277.989 83.476 278.409 84.964 279.249 86.068C280.089 87.148 281.505 87.688 283.497 87.688C284.241 87.688 284.973 87.616 285.693 87.472C286.413 87.328 287.037 87.148 287.565 86.932L288.177 90.532C287.697 90.772 286.965 90.988 285.981 91.18C285.021 91.372 284.025 91.468 282.993 91.468C281.385 91.468 279.981 91.228 278.781 90.748C277.605 90.244 276.621 89.56 275.829 88.696C275.061 87.808 274.485 86.764 274.101 85.564C273.717 84.34 273.525 83.02 273.525 81.604ZM295.905 79.516C296.457 78.94 297.045 78.328 297.669 77.68C298.293 77.008 298.905 76.348 299.505 75.7C300.105 75.028 300.669 74.392 301.197 73.792C301.749 73.168 302.217 72.628 302.601 72.172H307.749C306.549 73.516 305.277 74.908 303.933 76.348C302.613 77.788 301.281 79.192 299.937 80.56C300.657 81.16 301.413 81.892 302.205 82.756C302.997 83.596 303.765 84.496 304.509 85.456C305.253 86.416 305.949 87.376 306.597 88.336C307.245 89.296 307.785 90.184 308.217 91H303.177C302.745 90.256 302.241 89.476 301.665 88.66C301.113 87.844 300.513 87.052 299.865 86.284C299.217 85.516 298.557 84.796 297.885 84.124C297.213 83.428 296.553 82.84 295.905 82.36V91H291.549V63.784L295.905 63.064V79.516Z" fill="#313638"/>
<path d="M148.904 14.736H156.392V48H148.904V33.888H136.328V48H128.84V14.736H136.328V27.456H148.904V14.736ZM164.09 48V14.736H186.554V21.024H171.578V27.552H184.874V33.696H171.578V41.712H187.658V48H164.09ZM215.471 48C215.119 46.848 214.719 45.664 214.271 44.448C213.855 43.232 213.439 42.016 213.023 40.8H200.063C199.647 42.016 199.215 43.232 198.767 44.448C198.351 45.664 197.967 46.848 197.615 48H189.839C191.087 44.416 192.271 41.104 193.391 38.064C194.511 35.024 195.599 32.16 196.655 29.472C197.743 26.784 198.799 24.24 199.823 21.84C200.879 19.408 201.967 17.04 203.087 14.736H210.239C211.327 17.04 212.399 19.408 213.455 21.84C214.511 24.24 215.567 26.784 216.623 29.472C217.711 32.16 218.815 35.024 219.935 38.064C221.055 41.104 222.239 44.416 223.487 48H215.471ZM206.495 22.272C206.335 22.752 206.095 23.408 205.775 24.24C205.455 25.072 205.087 26.032 204.671 27.12C204.255 28.208 203.791 29.408 203.279 30.72C202.799 32.032 202.303 33.408 201.791 34.848H211.247C210.735 33.408 210.239 32.032 209.759 30.72C209.279 29.408 208.815 28.208 208.367 27.12C207.951 26.032 207.583 25.072 207.263 24.24C206.943 23.408 206.687 22.752 206.495 22.272ZM250.017 41.568V48H227.793V14.736H235.281V41.568H250.017ZM275.762 14.736V21.12H265.73V48H258.242V21.12H248.21V14.736H275.762ZM300.638 14.736H308.126V48H300.638V33.888H288.062V48H280.574V14.736H288.062V27.456H300.638V14.736Z" fill="#FF9F1C"/>
<defs>
<linearGradient id="paint0_linear_316_117" x1="2.1867" y1="40.9258" x2="6.19604" y2="106.259" gradientUnits="userSpaceOnUse">
<stop offset="0.287121" stop-color="#FF9F1C"/>
<stop offset="0.671875" stop-color="#F06543"/>
</linearGradient>
</defs>
</svg>
