<svg width="20" height="22" viewBox="0 0 20 22" fill="none" xmlns="http://www.w3.org/2000/svg">
<path d="M6.06527 9.94797C6.27829 9.9054 6.46567 9.77994 6.58619 9.59921C6.70671 9.41848 6.7505 9.19727 6.70793 8.98425C6.66535 8.77123 6.5399 8.58385 6.35917 8.46332C6.17843 8.3428 5.95723 8.29901 5.74421 8.34158C4.7581 8.53815 4.01333 9.22832 3.61692 10.1533C3.22378 11.0684 3.1659 12.2129 3.47277 13.4381C3.49673 13.5446 3.54174 13.6452 3.60514 13.7341C3.66855 13.8229 3.74907 13.8982 3.84199 13.9555C3.9349 14.0128 4.03833 14.0509 4.14619 14.0677C4.25405 14.0844 4.36417 14.0794 4.47007 14.053C4.57598 14.0266 4.67554 13.9792 4.76289 13.9138C4.85025 13.8483 4.92364 13.7661 4.97876 13.6719C5.03387 13.5777 5.0696 13.4734 5.08384 13.3652C5.09808 13.257 5.09055 13.147 5.06168 13.0417C4.82143 12.0829 4.90006 11.3163 5.12174 10.7987C5.34015 10.2898 5.68742 10.0233 6.06527 9.94688V9.94797ZM2.86996 1.4126C2.82336 2.18792 2.9369 2.96453 3.20349 3.69405C3.47009 4.42358 3.88404 5.0904 4.41956 5.65299C3.37925 5.95126 2.44785 6.54505 1.73838 7.36229C1.02892 8.17953 0.571872 9.18511 0.422706 10.257C0.0632616 12.829 0.590958 15.4467 1.9188 17.6785L2.30101 18.3228C2.3155 18.3465 2.33117 18.3695 2.34797 18.3916L3.89429 20.473C4.22182 20.9142 4.64155 21.2786 5.12428 21.541C5.60701 21.8034 6.14113 21.9574 6.68945 21.9924C7.23778 22.0273 7.78712 21.9423 8.29924 21.7433C8.81136 21.5442 9.27395 21.236 9.65479 20.84C9.69932 20.7936 9.75274 20.7568 9.81185 20.7316C9.87096 20.7065 9.93454 20.6935 9.99879 20.6935C10.063 20.6935 10.1266 20.7065 10.1857 20.7316C10.2448 20.7568 10.2982 20.7936 10.3428 20.84C10.7236 21.236 11.1862 21.5442 11.6983 21.7433C12.2105 21.9423 12.7598 22.0273 13.3081 21.9924C13.8564 21.9574 14.3906 21.8034 14.8733 21.541C15.356 21.2786 15.7758 20.9142 16.1033 20.473L17.6496 18.3905C17.666 18.3684 17.6814 18.3454 17.6955 18.3217L18.0788 17.6774C19.4075 15.4463 19.9363 12.829 19.5781 10.257C19.4724 9.49916 19.2122 8.77107 18.8138 8.11782C18.4153 7.46458 17.8869 6.90008 17.2614 6.45927C16.636 6.01847 15.9267 5.71075 15.1775 5.55515C14.4282 5.39956 13.6551 5.39941 12.9058 5.5547L10.8298 5.98497H10.8266C10.8593 5.13318 10.9925 4.21587 11.2535 3.43178C11.5702 2.48389 12.0092 1.91385 12.4985 1.71073C12.699 1.62703 12.8581 1.46708 12.9408 1.26607C13.0234 1.06506 13.0228 0.839462 12.9391 0.638896C12.8554 0.43833 12.6954 0.279229 12.4944 0.196593C12.2934 0.113958 12.0678 0.114557 11.8673 0.198259C10.7184 0.677663 10.0654 1.81447 9.69957 2.91306L9.64933 3.06813C9.3804 2.54849 9.03307 2.07335 8.61954 1.65941C8.05319 1.09241 7.37284 0.652202 6.62356 0.367927C5.87428 0.0836508 5.07315 -0.038205 4.27323 0.0104283C3.90818 0.0314407 3.56353 0.185707 3.30467 0.443965C3.04581 0.702223 2.89074 1.04651 2.86887 1.41151L2.86996 1.4126ZM4.50038 1.63866C5.04837 1.62284 5.5938 1.71931 6.10312 1.92214C6.61244 2.12497 7.07488 2.42986 7.46198 2.81806C7.85018 3.20516 8.15507 3.66759 8.3579 4.17692C8.56073 4.68624 8.6572 5.23167 8.64138 5.77966C8.44332 5.78504 8.24513 5.77591 8.04841 5.75236L7.37462 5.61258C6.73419 5.42153 6.15162 5.07356 5.67978 4.60026C5.29158 4.21316 4.98669 3.75073 4.78386 3.2414C4.58103 2.73208 4.48456 2.18665 4.50038 1.63866ZM6.7598 7.15782L6.98039 7.20368C7.24248 7.27794 7.50894 7.33363 7.77758 7.36967L8.83686 7.58808C9.60406 7.74702 10.3957 7.74702 11.1629 7.58808L13.24 7.15782C13.7698 7.04801 14.3165 7.04813 14.8462 7.15818C15.376 7.26822 15.8775 7.48584 16.3197 7.79756C16.762 8.10928 17.1355 8.50846 17.4173 8.9704C17.699 9.43234 17.8829 9.94719 17.9576 10.4831C18.2642 12.6865 17.8109 14.9286 16.6722 16.8398L16.3108 17.4481L14.7896 19.4968C14.6039 19.7468 14.366 19.9534 14.0923 20.1021C13.8187 20.2509 13.5159 20.3381 13.2051 20.3579C12.8943 20.3776 12.5829 20.3294 12.2926 20.2165C12.0023 20.1036 11.7402 19.9288 11.5244 19.7042C11.3271 19.4989 11.0904 19.3356 10.8284 19.224C10.5664 19.1124 10.2846 19.0549 9.99988 19.0549C9.71514 19.0549 9.43333 19.1124 9.17137 19.224C8.9094 19.3356 8.67268 19.4989 8.47539 19.7042C8.25959 19.9288 7.99742 20.1036 7.70715 20.2165C7.41688 20.3294 7.10549 20.3776 6.79467 20.3579C6.48385 20.3381 6.18107 20.2509 5.90742 20.1021C5.63378 19.9534 5.39584 19.7468 5.2102 19.4968L3.68899 17.4481L3.32753 16.8398C2.18928 14.9285 1.73631 12.6864 2.04329 10.4831C2.11799 9.9473 2.30185 9.43256 2.5835 8.97071C2.86515 8.50886 3.2386 8.10973 3.68072 7.79803C4.12284 7.48632 4.62423 7.26867 5.15385 7.15855C5.68348 7.04843 6.23007 7.04818 6.7598 7.15782Z" fill="#E8E9EB"/>
</svg>
