<svg width="70" height="70" viewBox="0 0 70 70" fill="none" xmlns="http://www.w3.org/2000/svg">
<rect width="70" height="70" rx="20" fill="#313638"/>
<path d="M48.7661 39.994C57.7361 30.8583 52.3133 22.0784 45.9727 19.7646C39.2394 17.3071 34.9525 22.9015 34.9525 22.9015C34.9525 22.9015 30.6633 17.3071 23.9299 19.7646C17.5893 22.0784 12.1666 30.8583 21.1365 39.994C23.7951 42.702 26.3893 45.1734 28.5978 47.209" stroke="#FF9F1C" stroke-width="4" stroke-linecap="round" stroke-linejoin="round"/>
<path d="M24.0625 37.7344V39.7344C24.8308 39.7344 25.5312 39.2943 25.8645 38.602L24.0625 37.7344ZM27.6172 30.3516L29.3977 29.4406C29.0517 28.7644 28.3525 28.3425 27.593 28.3517C26.8335 28.3609 26.1447 28.7995 25.8152 29.4839L27.6172 30.3516ZM33.6328 42.1094L31.8523 43.0203C32.1903 43.681 32.8663 44.1002 33.6084 44.1092C34.3504 44.1183 35.0365 43.7158 35.3905 43.0636L33.6328 42.1094ZM38.8281 32.5391L40.3979 31.2998C39.9813 30.772 39.3273 30.489 38.6574 30.5464C37.9875 30.6038 37.3912 30.994 37.0704 31.5849L38.8281 32.5391ZM42.9297 37.7344L41.3599 38.9737C41.7392 39.4541 42.3176 39.7344 42.9297 39.7344V37.7344ZM61.5234 39.7344C62.628 39.7344 63.5234 38.8389 63.5234 37.7344C63.5234 36.6298 62.628 35.7344 61.5234 35.7344V39.7344ZM19.9609 35.7344C18.8564 35.7344 17.9609 36.6298 17.9609 37.7344C17.9609 38.8389 18.8564 39.7344 19.9609 39.7344V35.7344ZM25.8645 38.602L29.4192 31.2192L25.8152 29.4839L22.2605 36.8667L25.8645 38.602ZM25.8367 31.2625L31.8523 43.0203L35.4133 41.1984L29.3977 29.4406L25.8367 31.2625ZM35.3905 43.0636L40.5858 33.4932L37.0704 31.5849L31.8751 41.1552L35.3905 43.0636ZM37.2584 33.7784L41.3599 38.9737L44.4995 36.4951L40.3979 31.2998L37.2584 33.7784ZM42.9297 39.7344H61.5234V35.7344H42.9297V39.7344ZM24.0625 35.7344H19.9609V39.7344H24.0625V35.7344Z" fill="#E8E9EB"/>
<path d="M28.5392 47.1543C30.954 49.3811 32.9151 51.0921 34.0077 52.0311" stroke="#F06543" stroke-width="4" stroke-linecap="round" stroke-linejoin="round"/>
<path d="M17.8589 35.6204C18.6138 37.052 19.6876 38.5184 21.1365 39.9941C23.7951 42.702 26.3893 45.1734 28.5977 47.209" stroke="url(#paint0_linear_362_247)" stroke-width="4" stroke-linecap="round" stroke-linejoin="round"/>
<defs>
<linearGradient id="paint0_linear_362_247" x1="32.0596" y1="25.432" x2="24.2099" y2="52.5256" gradientUnits="userSpaceOnUse">
<stop offset="0.287121" stop-color="#FF9F1C"/>
<stop offset="0.686677" stop-color="#F06543"/>
</linearGradient>
</defs>
</svg>
