<svg width="312" height="105" viewBox="0 0 312 105" fill="none" xmlns="http://www.w3.org/2000/svg">
<path d="M98.2413 64.8572C124.087 38.5336 108.462 13.2354 90.1923 6.56851C70.791 -0.512574 58.4389 15.6069 58.4389 15.6069C58.4389 15.6069 46.08 -0.512574 26.6787 6.56851C8.40888 13.2354 -7.21621 38.5336 18.6297 64.8572C26.2902 72.6598 33.765 79.7809 40.1285 85.6462" stroke="#FF9F1C" stroke-width="9" stroke-linecap="round" stroke-linejoin="round"/>
<path d="M27.0606 59.3463V62.3463C28.2131 62.3463 29.2637 61.6862 29.7636 60.6478L27.0606 59.3463ZM37.303 38.0736L39.9738 36.7072C39.4548 35.6929 38.4061 35.0601 37.2668 35.0738C36.1275 35.0876 35.0943 35.7456 34.6 36.7722L37.303 38.0736ZM54.6364 71.9524L51.9656 73.3188C52.4726 74.3098 53.4867 74.9386 54.5997 74.9522C55.7128 74.9658 56.7419 74.362 57.2729 73.3837L54.6364 71.9524ZM69.6061 44.3766L71.9607 42.5177C71.3358 41.7261 70.3549 41.3015 69.35 41.3876C68.3451 41.4737 67.4507 42.059 66.9695 42.9454L69.6061 44.3766ZM81.4243 59.3463L79.0696 61.2053C79.6385 61.9259 80.5061 62.3463 81.4243 62.3463V59.3463ZM218 62.3463C219.657 62.3463 221 61.0032 221 59.3463C221 57.6895 219.657 56.3463 218 56.3463V62.3463ZM15.2424 56.3463C13.5856 56.3463 12.2424 57.6895 12.2424 59.3463C12.2424 61.0032 13.5856 62.3463 15.2424 62.3463V56.3463ZM29.7636 60.6478L40.006 39.3751L34.6 36.7722L24.3576 58.0449L29.7636 60.6478ZM34.6323 39.44L51.9656 73.3188L57.3071 70.586L39.9738 36.7072L34.6323 39.44ZM57.2729 73.3837L72.2426 45.8079L66.9695 42.9454L51.9998 70.5211L57.2729 73.3837ZM67.2514 46.2356L79.0696 61.2053L83.7789 57.4874L71.9607 42.5177L67.2514 46.2356ZM81.4243 62.3463H218V56.3463H81.4243V62.3463ZM27.0606 56.3463H15.2424V62.3463H27.0606V56.3463Z" fill="#E8E9EB"/>
<path d="M39.9597 85.4891C46.9177 91.9055 52.5685 96.8355 55.7165 99.541" stroke="#F06543" stroke-width="9" stroke-linecap="round" stroke-linejoin="round"/>
<path d="M9.18567 52.2548C11.3609 56.3799 14.4548 60.6052 18.6296 64.8572C26.2902 72.6597 33.7649 79.7809 40.1285 85.6462" stroke="url(#paint0_linear_316_137)" stroke-width="9" stroke-linecap="round" stroke-linejoin="round"/>
<path d="M225.556 66.9745L229.912 66.2545V71.9425H236.608V75.5785H229.912V83.2465C229.912 84.7585 230.152 85.8385 230.632 86.4865C231.112 87.1345 231.928 87.4585 233.08 87.4585C233.872 87.4585 234.568 87.3745 235.168 87.2065C235.792 87.0385 236.284 86.8825 236.644 86.7385L237.364 90.1945C236.86 90.4105 236.2 90.6265 235.384 90.8425C234.568 91.0825 233.608 91.2025 232.504 91.2025C231.16 91.2025 230.032 91.0225 229.12 90.6625C228.232 90.3025 227.524 89.7865 226.996 89.1145C226.468 88.4185 226.096 87.5905 225.88 86.6305C225.664 85.6465 225.556 84.5305 225.556 83.2825V66.9745ZM251.547 75.8665C251.187 75.7465 250.683 75.6265 250.035 75.5065C249.411 75.3625 248.679 75.2905 247.839 75.2905C247.359 75.2905 246.843 75.3385 246.291 75.4345C245.763 75.5305 245.391 75.6145 245.175 75.6865V90.7705H240.819V72.8425C241.659 72.5305 242.703 72.2425 243.951 71.9785C245.223 71.6905 246.627 71.5465 248.163 71.5465C248.451 71.5465 248.787 71.5705 249.171 71.6185C249.555 71.6425 249.939 71.6905 250.323 71.7625C250.707 71.8105 251.079 71.8825 251.439 71.9785C251.799 72.0505 252.087 72.1225 252.303 72.1945L251.547 75.8665ZM261.962 87.7105C263.306 87.7105 264.326 87.6385 265.022 87.4945V82.6705C264.782 82.5985 264.434 82.5265 263.978 82.4545C263.522 82.3825 263.018 82.3465 262.466 82.3465C261.986 82.3465 261.494 82.3825 260.99 82.4545C260.51 82.5265 260.066 82.6585 259.658 82.8505C259.274 83.0425 258.962 83.3185 258.722 83.6785C258.482 84.0145 258.362 84.4465 258.362 84.9745C258.362 86.0065 258.686 86.7265 259.334 87.1345C259.982 87.5185 260.858 87.7105 261.962 87.7105ZM261.602 71.4745C263.042 71.4745 264.254 71.6545 265.238 72.0145C266.222 72.3745 267.002 72.8785 267.578 73.5265C268.178 74.1745 268.598 74.9665 268.838 75.9025C269.102 76.8145 269.234 77.8225 269.234 78.9265V90.3385C268.562 90.4825 267.542 90.6505 266.174 90.8425C264.83 91.0585 263.306 91.1665 261.602 91.1665C260.474 91.1665 259.442 91.0585 258.506 90.8425C257.57 90.6265 256.766 90.2785 256.094 89.7985C255.446 89.3185 254.93 88.6945 254.546 87.9265C254.186 87.1585 254.006 86.2105 254.006 85.0825C254.006 84.0025 254.21 83.0905 254.618 82.3465C255.05 81.6025 255.626 81.0025 256.346 80.5465C257.066 80.0665 257.894 79.7305 258.83 79.5385C259.79 79.3225 260.786 79.2145 261.818 79.2145C262.298 79.2145 262.802 79.2505 263.33 79.3225C263.858 79.3705 264.422 79.4665 265.022 79.6105V78.8905C265.022 78.3865 264.962 77.9065 264.842 77.4505C264.722 76.9945 264.506 76.5985 264.194 76.2625C263.906 75.9025 263.51 75.6265 263.006 75.4345C262.526 75.2425 261.914 75.1465 261.17 75.1465C260.162 75.1465 259.238 75.2185 258.398 75.3625C257.558 75.5065 256.874 75.6745 256.346 75.8665L255.806 72.3385C256.358 72.1465 257.162 71.9545 258.218 71.7625C259.274 71.5705 260.402 71.4745 261.602 71.4745ZM273.525 81.3745C273.525 79.9825 273.741 78.6865 274.173 77.4865C274.605 76.2625 275.217 75.2065 276.009 74.3185C276.825 73.4305 277.809 72.7345 278.961 72.2305C280.113 71.7265 281.409 71.4745 282.849 71.4745C284.625 71.4745 286.305 71.7985 287.889 72.4465L286.953 76.0105C286.449 75.7945 285.873 75.6145 285.225 75.4705C284.601 75.3265 283.929 75.2545 283.209 75.2545C281.505 75.2545 280.209 75.7945 279.321 76.8745C278.433 77.9305 277.989 79.4305 277.989 81.3745C277.989 83.2465 278.409 84.7345 279.249 85.8385C280.089 86.9185 281.505 87.4585 283.497 87.4585C284.241 87.4585 284.973 87.3865 285.693 87.2425C286.413 87.0985 287.037 86.9185 287.565 86.7025L288.177 90.3025C287.697 90.5425 286.965 90.7585 285.981 90.9505C285.021 91.1425 284.025 91.2385 282.993 91.2385C281.385 91.2385 279.981 90.9985 278.781 90.5185C277.605 90.0145 276.621 89.3305 275.829 88.4665C275.061 87.5785 274.485 86.5345 274.101 85.3345C273.717 84.1105 273.525 82.7905 273.525 81.3745ZM295.905 79.2865C296.457 78.7105 297.045 78.0985 297.669 77.4505C298.293 76.7785 298.905 76.1185 299.505 75.4705C300.105 74.7985 300.669 74.1625 301.197 73.5625C301.749 72.9385 302.217 72.3985 302.601 71.9425H307.749C306.549 73.2865 305.277 74.6785 303.933 76.1185C302.613 77.5585 301.281 78.9625 299.937 80.3305C300.657 80.9305 301.413 81.6625 302.205 82.5265C302.997 83.3665 303.765 84.2665 304.509 85.2265C305.253 86.1865 305.949 87.1465 306.597 88.1065C307.245 89.0665 307.785 89.9545 308.217 90.7705H303.177C302.745 90.0265 302.241 89.2465 301.665 88.4305C301.113 87.6145 300.513 86.8225 299.865 86.0545C299.217 85.2865 298.557 84.5665 297.885 83.8945C297.213 83.1985 296.553 82.6105 295.905 82.1305V90.7705H291.549V63.5545L295.905 62.8345V79.2865Z" fill="#E8E9EB"/>
<path d="M148.904 14.5065H156.392V47.7705H148.904V33.6585H136.328V47.7705H128.84V14.5065H136.328V27.2265H148.904V14.5065ZM164.09 47.7705V14.5065H186.554V20.7945H171.578V27.3225H184.874V33.4665H171.578V41.4825H187.658V47.7705H164.09ZM215.471 47.7705C215.119 46.6185 214.719 45.4345 214.271 44.2185C213.855 43.0025 213.439 41.7865 213.023 40.5705H200.063C199.647 41.7865 199.215 43.0025 198.767 44.2185C198.351 45.4345 197.967 46.6185 197.615 47.7705H189.839C191.087 44.1865 192.271 40.8745 193.391 37.8345C194.511 34.7945 195.599 31.9305 196.655 29.2425C197.743 26.5545 198.799 24.0105 199.823 21.6105C200.879 19.1785 201.967 16.8105 203.087 14.5065H210.239C211.327 16.8105 212.399 19.1785 213.455 21.6105C214.511 24.0105 215.567 26.5545 216.623 29.2425C217.711 31.9305 218.815 34.7945 219.935 37.8345C221.055 40.8745 222.239 44.1865 223.487 47.7705H215.471ZM206.495 22.0425C206.335 22.5225 206.095 23.1785 205.775 24.0105C205.455 24.8425 205.087 25.8025 204.671 26.8905C204.255 27.9785 203.791 29.1785 203.279 30.4905C202.799 31.8025 202.303 33.1785 201.791 34.6185H211.247C210.735 33.1785 210.239 31.8025 209.759 30.4905C209.279 29.1785 208.815 27.9785 208.367 26.8905C207.951 25.8025 207.583 24.8425 207.263 24.0105C206.943 23.1785 206.687 22.5225 206.495 22.0425ZM250.017 41.3385V47.7705H227.793V14.5065H235.281V41.3385H250.017ZM275.762 14.5065V20.8905H265.73V47.7705H258.242V20.8905H248.21V14.5065H275.762ZM300.638 14.5065H308.126V47.7705H300.638V33.6585H288.062V47.7705H280.574V14.5065H288.062V27.2265H300.638V14.5065Z" fill="#FF9F1C"/>
<defs>
<linearGradient id="paint0_linear_316_137" x1="2.1867" y1="40.6963" x2="6.19604" y2="106.03" gradientUnits="userSpaceOnUse">
<stop offset="0.287121" stop-color="#FF9F1C"/>
<stop offset="0.671875" stop-color="#F06543"/>
</linearGradient>
</defs>
</svg>
