<svg width="83" height="83" viewBox="0 0 83 83" fill="none" xmlns="http://www.w3.org/2000/svg">
<g clip-path="url(#clip0_395_447)">
<path d="M51.1699 37.5465C51.4994 37.8536 51.831 38.1445 52.1707 38.4151C54.7948 40.5204 57.5999 41.4256 60.2708 41.568C64.7663 41.8081 68.7655 39.8024 70.3908 38.9846L70.8485 38.7609C71.8244 38.3007 72.5776 37.4716 72.9423 36.4561C73.307 35.4406 73.2533 34.3218 72.7932 33.3459C72.333 32.3699 71.5039 31.6168 70.4884 31.2521C69.4729 30.8874 68.3541 30.941 67.3782 31.4012L66.6988 31.7267C64.9005 32.5953 62.901 33.5595 60.704 33.4435C59.6361 33.3845 58.4847 33.0489 57.2622 32.0684C55.9908 31.0473 54.4713 29.1901 53.0026 25.8194C51.8126 23.0896 50.0388 20.974 47.5205 19.7718C45.108 18.6205 42.5409 18.5717 40.2524 18.8442C34.1194 19.5725 29.4591 23.1282 26.2898 26.4317C23.68 29.1494 21.7333 32.0989 20.7772 33.5452C20.584 33.8402 20.4314 34.0721 20.3216 34.2267C19.7187 35.1093 19.4874 36.1938 19.6777 37.2456C19.8679 38.2974 20.4645 39.2321 21.3384 39.8476C22.2123 40.463 23.2934 40.7099 24.3478 40.5347C25.4022 40.3595 26.3454 39.7764 26.9733 38.9114C27.2011 38.59 27.4513 38.2137 27.73 37.7926C28.7471 36.2629 30.1405 34.1677 32.1605 32.0644C33.7512 30.4065 35.5331 28.9724 37.4941 28.0306L36.003 32.1437C34.4977 36.3056 32.8236 40.972 32.5531 41.9077C32.3725 42.5404 32.3336 43.2051 32.4391 43.8544C32.5022 44.2653 32.6121 44.6132 32.6995 44.8573C32.8724 45.3414 33.1023 45.8011 33.3057 46.1714C33.7207 46.9362 34.2902 47.817 34.9025 48.71C36.1434 50.5225 37.8155 52.7499 39.4733 54.9061C40.9379 56.8081 42.429 58.7019 43.6556 60.2601L44.1458 60.8846C44.8049 61.7206 45.3562 62.4224 45.761 62.9493C45.9441 63.1852 46.0661 63.352 46.1475 63.4578C46.2268 63.7284 46.3265 64.1209 46.4465 64.6356C46.6845 65.6588 46.9571 66.9891 47.2459 68.4517C47.4331 69.3915 47.6263 70.3943 47.8155 71.385C48.202 73.3846 48.5783 75.3374 48.8672 76.6433C48.9826 77.165 49.1996 77.6589 49.5059 78.0967C49.8121 78.5346 50.2016 78.9078 50.6521 79.1951C51.1026 79.4824 51.6053 79.6782 52.1315 79.7712C52.6576 79.8642 53.197 79.8527 53.7187 79.7373C54.2404 79.6219 54.7343 79.4049 55.1721 79.0986C55.6099 78.7924 55.9831 78.4029 56.2704 77.9523C56.5578 77.5018 56.7535 76.9992 56.8465 76.473C56.9396 75.9469 56.9281 75.4075 56.8127 74.8858C56.5482 73.6856 56.2085 71.9363 55.8403 70.0201C55.643 68.9989 55.4376 67.931 55.2301 66.8752C54.9653 65.5099 54.6792 64.1489 54.3716 62.7926C54.249 62.2534 54.112 61.7176 53.9607 61.1856C53.859 60.8439 53.6515 60.1319 53.2976 59.5115C52.9691 58.9916 52.6119 58.4905 52.2276 58.0103L52.2073 57.9859C51.772 57.4183 51.1943 56.684 50.5393 55.852L50.045 55.2235C48.5016 53.2687 46.9706 51.3043 45.4518 49.3304L51.1719 37.5465H51.1699ZM36.7821 62.1966L30.9745 54.127L29.3065 58.9257L19.1885 56.5477C18.1381 56.3009 17.0327 56.4814 16.1154 57.0497C15.1981 57.6179 14.5442 58.5272 14.2973 59.5776C14.0505 60.628 14.2311 61.7334 14.7993 62.6507C15.3675 63.568 16.2768 64.222 17.3272 64.4688L31.0132 67.6848C31.9923 67.9146 33.0218 67.7737 33.9031 67.2891C34.7844 66.8045 35.4549 66.0106 35.7854 65.0607L36.7821 62.1987V62.1966Z" stroke="#E8E9EB" stroke-width="4.5" stroke-linecap="round" stroke-linejoin="round"/>
<path fill-rule="evenodd" clip-rule="evenodd" d="M59.9595 16.7734C61.5779 16.7734 63.1302 16.1305 64.2746 14.986C65.419 13.8416 66.062 12.2894 66.062 10.6709C66.062 9.05239 65.419 7.50019 64.2746 6.35574C63.1302 5.2113 61.5779 4.56835 59.9595 4.56835C58.341 4.56835 56.7888 5.2113 55.6443 6.35574C54.4999 7.50019 53.8569 9.05239 53.8569 10.6709C53.8569 12.2894 54.4999 13.8416 55.6443 14.986C56.7888 16.1305 58.341 16.7734 59.9595 16.7734ZM59.9595 20.8418C62.6569 20.8418 65.2439 19.7702 67.1514 17.8628C69.0588 15.9554 70.1303 13.3684 70.1303 10.6709C70.1303 7.9734 69.0588 5.38639 67.1514 3.47898C65.2439 1.57157 62.6569 0.5 59.9595 0.5C57.262 0.5 54.675 1.57157 52.7676 3.47898C50.8601 5.38639 49.7886 7.9734 49.7886 10.6709C49.7886 13.3684 50.8601 15.9554 52.7676 17.8628C54.675 19.7702 57.262 20.8418 59.9595 20.8418Z" fill="#E8E9EB"/>
</g>
<defs>
<clipPath id="clip0_395_447">
<rect width="82" height="82" fill="white" transform="translate(0.5 0.5)"/>
</clipPath>
</defs>
</svg>
