<svg width="22" height="22" viewBox="0 0 22 22" fill="none" xmlns="http://www.w3.org/2000/svg">
<path d="M6.18748 12.0313H2.74998C2.47647 12.0313 2.21417 11.9226 2.02077 11.7292C1.82738 11.5358 1.71873 11.2735 1.71873 11C1.71873 10.7265 1.82738 10.4642 2.02077 10.2708C2.21417 10.0774 2.47647 9.96877 2.74998 9.96877H5.63748L6.7031 8.36174C6.79849 8.22172 6.92664 8.10713 7.07642 8.02793C7.2262 7.94874 7.39305 7.90734 7.56248 7.90734C7.7319 7.90734 7.89876 7.94874 8.04853 8.02793C8.19831 8.10713 8.32646 8.22172 8.42185 8.36174L10.3125 11.2063L10.8281 10.4242C10.9234 10.284 11.0515 10.1692 11.2013 10.0898C11.351 10.0104 11.518 9.96889 11.6875 9.96877H13.75C14.0235 9.96877 14.2858 10.0774 14.4792 10.2708C14.6726 10.4642 14.7812 10.7265 14.7812 11C14.7812 11.2735 14.6726 11.5358 14.4792 11.7292C14.2858 11.9226 14.0235 12.0313 13.75 12.0313H12.2375L11.1718 13.6383C11.0765 13.7783 10.9483 13.8929 10.7985 13.9721C10.6488 14.0513 10.4819 14.0927 10.3125 14.0927C10.1431 14.0927 9.97619 14.0513 9.82642 13.9721C9.67664 13.8929 9.54849 13.7783 9.4531 13.6383L7.56248 10.7938L7.04685 11.5758C6.95158 11.716 6.82348 11.8308 6.6737 11.9102C6.52391 11.9896 6.357 12.0311 6.18748 12.0313ZM15.125 2.40627C14.3451 2.40554 13.574 2.57067 12.8628 2.8907C12.1516 3.21073 11.5166 3.67835 11 4.26252C10.2833 3.45104 9.34308 2.86912 8.29712 2.58968C7.25116 2.31024 6.14599 2.34572 5.12011 2.69165C4.09422 3.03759 3.19325 3.67861 2.53009 4.53438C1.86693 5.39015 1.47109 6.4226 1.39216 7.50236C1.37443 7.64116 1.38513 7.78212 1.42361 7.91666C1.4621 8.05119 1.52756 8.17649 1.61601 8.28492C1.70446 8.39335 1.81405 8.48264 1.93812 8.54736C2.06218 8.61208 2.19812 8.65088 2.33765 8.66139C2.47719 8.6719 2.6174 8.6539 2.74976 8.60849C2.88212 8.56308 3.00385 8.49121 3.10754 8.39725C3.21124 8.30329 3.29472 8.18921 3.35292 8.06196C3.41112 7.93471 3.44281 7.79694 3.44607 7.65705C3.50255 6.88632 3.81708 6.15711 4.3389 5.58711C4.86073 5.0171 5.5594 4.63956 6.32216 4.51541C7.08491 4.39127 7.86725 4.52776 8.5429 4.90286C9.21855 5.27797 9.74809 5.8698 10.0461 6.58283C10.1238 6.77197 10.2559 6.93375 10.4258 7.0476C10.5956 7.16145 10.7955 7.22224 11 7.22224C11.2045 7.22224 11.4043 7.16145 11.5742 7.0476C11.744 6.93375 11.8762 6.77197 11.9539 6.58283C12.2603 5.85043 12.8109 5.24669 13.512 4.87414C14.2131 4.50159 15.0215 4.38322 15.8 4.53912C16.5784 4.69501 17.279 5.11557 17.7825 5.72936C18.2861 6.34316 18.5617 7.11234 18.5625 7.90627C18.5625 12.3063 12.7617 16.2594 11 17.3594C10.089 16.7922 8.12107 15.4774 6.41091 13.7156C6.21946 13.5196 5.95798 13.4077 5.684 13.4045C5.41003 13.4013 5.14599 13.507 4.94998 13.6985C4.75396 13.8899 4.64204 14.1514 4.63881 14.4254C4.63559 14.6993 4.74134 14.9634 4.93279 15.1594C7.44216 17.7375 10.3726 19.3961 10.4929 19.4649C10.6487 19.5491 10.8229 19.5932 11 19.5932C11.177 19.5932 11.3513 19.5491 11.507 19.4649C11.8765 19.25 20.625 14.2828 20.625 7.90627C20.6227 6.44828 20.0425 5.05065 19.0115 4.01969C17.9806 2.98873 16.583 2.40854 15.125 2.40627Z" fill="#E8E9EB"/>
</svg>
