<svg width="22" height="22" viewBox="0 0 22 22" fill="none" xmlns="http://www.w3.org/2000/svg">
<path d="M7.71773 20.2678C7.80162 20.3588 7.84623 20.4792 7.84186 20.6028C7.83749 20.7265 7.7845 20.8434 7.69441 20.9282L6.68144 21.8754C6.59099 21.9595 6.47088 22.0042 6.34749 21.9997C6.22411 21.9952 6.10754 21.942 6.02339 21.8516L0.124209 15.494C0.0403777 15.403 -0.00414907 15.2826 0.000304642 15.1589C0.00475836 15.0353 0.0578327 14.9184 0.147994 14.8336L1.16236 13.8878C1.20712 13.8462 1.25965 13.8137 1.31695 13.7924C1.37425 13.771 1.4352 13.7612 1.49632 13.7634C1.55743 13.7656 1.61751 13.7798 1.67312 13.8052C1.72873 13.8307 1.77878 13.8668 1.82041 13.9116L7.71773 20.2678ZM15.245 8.30532C15.3288 8.39633 15.3734 8.51675 15.3689 8.6404C15.3645 8.76406 15.3114 8.88096 15.2212 8.96571L8.84589 14.9213C8.75544 15.0054 8.63532 15.05 8.51194 15.0456C8.38855 15.0411 8.27198 14.9879 8.18783 14.8975L6.66605 13.2554C6.58222 13.1644 6.53769 13.044 6.54215 12.9203C6.5466 12.7967 6.59967 12.6798 6.68984 12.595L13.0638 6.63943C13.1085 6.59777 13.161 6.56534 13.2183 6.54399C13.2755 6.52264 13.3364 6.51279 13.3975 6.515C13.4586 6.51721 13.5186 6.53144 13.5742 6.55687C13.6298 6.5823 13.6798 6.61844 13.7214 6.66321L15.245 8.30532V8.30532ZM9.88684 18.2405C10.0613 18.4285 10.0505 18.7255 9.86305 18.9009L8.84869 19.8476C8.80393 19.8893 8.7514 19.9217 8.69409 19.9431C8.63679 19.9645 8.57584 19.9743 8.51473 19.9721C8.45362 19.9699 8.39354 19.9557 8.33793 19.9302C8.28232 19.9048 8.23226 19.8686 8.19063 19.8238L2.29472 13.4662C2.21083 13.3753 2.16622 13.2549 2.17059 13.1312C2.17495 13.0076 2.22794 12.8906 2.31804 12.8058L3.33054 11.8596C3.42099 11.7755 3.5411 11.7308 3.66449 11.7353C3.78787 11.7397 3.90444 11.793 3.98859 11.8833L9.88684 18.2405ZM19.7101 8.53338C19.7939 8.62445 19.8383 8.7449 19.8338 8.86856C19.8292 8.99222 19.7761 9.10908 19.6858 9.19376L18.6719 10.1405C18.5815 10.2246 18.4613 10.2694 18.3379 10.265C18.2144 10.2607 18.0977 10.2075 18.0134 10.1172L12.1166 3.76096C12.0326 3.67007 11.9879 3.54966 11.9923 3.42597C11.9966 3.30227 12.0497 3.18532 12.1399 3.10058L13.1566 2.1515C13.2013 2.10985 13.2538 2.07742 13.3111 2.05607C13.3683 2.03472 13.4292 2.02486 13.4903 2.02707C13.5514 2.02928 13.6114 2.04351 13.667 2.06894C13.7226 2.09437 13.7726 2.13051 13.8142 2.17529L19.7101 8.53338ZM21.8759 6.50931C21.9597 6.60045 22.0041 6.72092 21.9997 6.84462C21.9952 6.96831 21.9422 7.08528 21.8522 7.17016L20.8401 8.11644C20.7954 8.15812 20.743 8.19059 20.6857 8.21198C20.6285 8.23337 20.5676 8.24326 20.5065 8.24109C20.4454 8.23893 20.3854 8.22474 20.3298 8.19935C20.2742 8.17396 20.2242 8.13786 20.1825 8.09312L14.2866 1.7341C14.2028 1.64301 14.1583 1.52258 14.1626 1.39888C14.167 1.27519 14.2199 1.15819 14.3099 1.07324L15.3229 0.125103C15.3675 0.0833767 15.4199 0.050872 15.4772 0.0294537C15.5344 0.00803553 15.5953 -0.00187462 15.6563 0.000291917C15.7174 0.00245845 15.7774 0.016659 15.8329 0.0420789C15.8885 0.0674987 15.9385 0.103637 15.98 0.148422L21.8759 6.50931V6.50931Z" fill="#E8E9EB"/>
</svg>
