<svg width="83" height="83" viewBox="0 0 83 83" fill="none" xmlns="http://www.w3.org/2000/svg">
<g clip-path="url(#clip0_395_455)">
<path d="M20.9716 45.8479H6.32203C5.15643 45.8479 4.03858 45.3906 3.21438 44.5766C2.39018 43.7626 1.92715 42.6585 1.92715 41.5073C1.92715 40.3561 2.39018 39.2521 3.21438 38.4381C4.03858 37.6241 5.15643 37.1668 6.32203 37.1668H18.6277L23.1691 30.4027C23.5756 29.8134 24.1218 29.331 24.7601 28.9977C25.3984 28.6644 26.1095 28.4901 26.8315 28.4901C27.5535 28.4901 28.2646 28.6644 28.9029 28.9977C29.5412 29.331 30.0874 29.8134 30.4939 30.4027L38.5512 42.3754L40.7486 39.0838C41.1546 38.4937 41.7006 38.0105 42.3389 37.6763C42.9772 37.3422 43.6886 37.1673 44.411 37.1668H53.2008C54.3664 37.1668 55.4842 37.6241 56.3084 38.4381C57.1326 39.2521 57.5957 40.3561 57.5957 41.5073C57.5957 42.6585 57.1326 43.7626 56.3084 44.5766C55.4842 45.3906 54.3664 45.8479 53.2008 45.8479H46.755L42.2136 52.6119C41.8071 53.2013 41.2609 53.6836 40.6226 54.0169C39.9843 54.3503 39.2732 54.5245 38.5512 54.5245C37.8291 54.5245 37.118 54.3503 36.4797 54.0169C35.8414 53.6836 35.2953 53.2013 34.8888 52.6119L26.8315 40.6392L24.634 43.9308C24.228 44.521 23.6821 45.0042 23.0438 45.3383C22.4054 45.6725 21.6941 45.8474 20.9716 45.8479ZM59.0606 5.3359C55.737 5.33282 52.4508 6.02786 49.42 7.37488C46.3891 8.72191 43.683 10.6901 41.4811 13.1489C38.4269 9.73338 34.4199 7.28406 29.9623 6.10789C25.5048 4.93172 20.7949 5.08103 16.4228 6.53709C12.0508 7.99316 8.21112 10.6912 5.38494 14.2932C2.55876 17.8952 0.871794 22.2408 0.535434 26.7856C0.459861 27.3698 0.505463 27.9631 0.669465 28.5293C0.833467 29.0956 1.11244 29.623 1.48939 30.0794C1.86635 30.5357 2.3334 30.9116 2.86212 31.184C3.39084 31.4564 3.97016 31.6197 4.56482 31.6639C5.15948 31.7082 5.75703 31.6324 6.3211 31.4413C6.88517 31.2502 7.40395 30.9476 7.84586 30.5522C8.28778 30.1567 8.64358 29.6765 8.89161 29.1409C9.13963 28.6053 9.2747 28.0255 9.28858 27.4366C9.52926 24.1926 10.8697 21.1233 13.0936 18.7242C15.3174 16.325 18.295 14.7359 21.5456 14.2134C24.7962 13.6908 28.1303 14.2653 31.0098 15.8442C33.8892 17.423 36.146 19.914 37.4158 22.9152C37.7469 23.7113 38.3102 24.3922 39.0341 24.8714C39.7579 25.3507 40.6097 25.6065 41.4811 25.6065C42.3525 25.6065 43.2043 25.3507 43.9281 24.8714C44.652 24.3922 45.2153 23.7113 45.5464 22.9152C46.8524 19.8325 49.1986 17.2913 52.1864 15.7233C55.1743 14.1552 58.6196 13.657 61.9373 14.3131C65.2549 14.9693 68.2402 16.7395 70.3863 19.3229C72.5324 21.9064 73.7069 25.1439 73.7102 28.4856C73.7102 47.0054 48.989 63.6442 41.4811 68.2742C37.5989 65.8869 29.212 60.3526 21.9239 52.9375C21.1079 52.1125 19.9936 51.6414 18.826 51.6278C17.6584 51.6142 16.5331 52.0593 15.6978 52.8652C14.8624 53.671 14.3854 54.7716 14.3717 55.9247C14.358 57.0779 14.8086 58.1893 15.6245 59.0143C26.3188 69.8657 38.8075 76.8468 39.3203 77.1362C39.9839 77.4908 40.7266 77.6764 41.4811 77.6764C42.2356 77.6764 42.9783 77.4908 43.6419 77.1362C45.2167 76.2319 82.5 55.3248 82.5 28.4856C82.4903 22.3489 80.0177 16.4662 75.6241 12.1269C71.2304 7.78752 65.2742 5.34547 59.0606 5.3359Z" fill="#E8E9EB"/>
</g>
<defs>
<clipPath id="clip0_395_455">
<rect width="82" height="82" fill="white" transform="translate(0.5 0.5)"/>
</clipPath>
</defs>
</svg>
