<svg width="89" height="89" viewBox="0 0 89 89" fill="none" xmlns="http://www.w3.org/2000/svg">
<path d="M56.212 58.1849L60.1206 66.5899C60.1206 66.5899 77.6914 70.3209 77.6914 79.1952C77.6914 85.5 69.8741 85.5001 69.8741 85.5001H49.0552L38.8052 79.8056" stroke="#E8E9EB" stroke-width="6" stroke-linecap="round" stroke-linejoin="round"/>
<path d="M32.7873 58.1849L28.8832 66.5899C28.8832 66.5899 11.3079 70.3209 11.3079 79.1952C11.3079 85.5 19.1252 85.5001 19.1252 85.5001H28.5552L38.8052 79.8056L51.333 71.8334" stroke="#E8E9EB" stroke-width="6" stroke-linecap="round" stroke-linejoin="round"/>
<path d="M3.5 62.3851C3.5 62.3851 13.2626 60.285 19.121 58.1849C24.9749 28.7651 42.5411 30.8652 44.5 30.8652C46.4543 30.8652 64.0251 28.7651 69.879 58.1849C75.7374 60.2804 85.5 62.3851 85.5 62.3851H3.5ZM44.5 21.7222C46.9164 21.7222 49.2339 20.7623 50.9425 19.0536C52.6512 17.345 53.6111 15.0275 53.6111 12.6111C53.6111 10.1947 52.6512 7.87725 50.9425 6.16858C49.2339 4.45992 46.9164 3.5 44.5 3.5C42.0836 3.5 39.7661 4.45992 38.0575 6.16858C36.3488 7.87725 35.3889 10.1947 35.3889 12.6111C35.3889 15.0275 36.3488 17.345 38.0575 19.0536C39.7661 20.7623 42.0836 21.7222 44.5 21.7222Z" stroke="#E8E9EB" stroke-width="6" stroke-linecap="round" stroke-linejoin="round"/>
</svg>
