<svg width="83" height="83" viewBox="0 0 83 83" fill="none" xmlns="http://www.w3.org/2000/svg">
<g clip-path="url(#clip0_395_443)">
<path fill-rule="evenodd" clip-rule="evenodd" d="M51.719 26.5918C51.719 29.313 50.638 31.9227 48.7138 33.8469C46.7897 35.7711 44.1799 36.8521 41.4587 36.8521C38.7375 36.8521 36.1278 35.7711 34.2036 33.8469C32.2795 31.9227 31.1985 29.313 31.1985 26.5918C31.1985 23.8706 32.2795 21.2609 34.2036 19.3367C36.1278 17.4125 38.7375 16.3315 41.4587 16.3315C44.1799 16.3315 46.7897 17.4125 48.7138 19.3367C50.638 21.2609 51.719 23.8706 51.719 26.5918ZM47.1589 26.5918C47.1589 28.1036 46.5583 29.5534 45.4893 30.6224C44.4204 31.6914 42.9705 32.2919 41.4587 32.2919C39.947 32.2919 38.4971 31.6914 37.4281 30.6224C36.3591 29.5534 35.7586 28.1036 35.7586 26.5918C35.7586 25.08 36.3591 23.6302 37.4281 22.5612C38.4971 21.4922 39.947 20.8917 41.4587 20.8917C42.9705 20.8917 44.4204 21.4922 45.4893 22.5612C46.5583 23.6302 47.1589 25.08 47.1589 26.5918Z" fill="#E8E9EB"/>
<path fill-rule="evenodd" clip-rule="evenodd" d="M7.26726 0.507967C7.86985 0.457479 8.46782 0.648434 8.92962 1.03883C9.39142 1.42922 9.67923 1.98707 9.72972 2.58966L10.3841 10.2712C33.2462 6.22179 49.1496 6.18531 72.5339 10.2871L73.186 2.58966C73.2112 2.29128 73.2951 2.0008 73.4326 1.73481C73.5702 1.46882 73.7588 1.23253 73.9876 1.03943C74.2165 0.846337 74.4812 0.700219 74.7665 0.60942C75.0519 0.518622 75.3523 0.484922 75.6507 0.510247L80.1949 0.897857C80.797 0.948924 81.3543 1.23697 81.7442 1.69871C82.1341 2.16044 82.3248 2.75809 82.2743 3.36032L81.5241 12.1819C81.8521 12.4106 82.1142 12.7216 82.2841 13.0836C82.454 13.4456 82.5256 13.8459 82.4919 14.2444C82.4582 14.6429 82.3203 15.0255 82.092 15.3538C81.8637 15.6821 81.553 15.9446 81.1912 16.115L80.3932 25.5133C80.368 25.8119 80.2841 26.1026 80.1464 26.3688C80.0087 26.6349 79.8199 26.8713 79.5907 27.0644C79.3616 27.2576 79.0967 27.4036 78.8111 27.4943C78.5254 27.5849 78.2248 27.6184 77.9262 27.5928L73.3843 27.2051C72.7821 27.1541 72.2249 26.866 71.835 26.4043C71.4451 25.9426 71.2544 25.3449 71.3049 24.7427L72.144 14.8472C70.9187 14.6308 69.692 14.4225 68.464 14.2225C68.6839 14.9039 68.7954 15.6156 68.7946 16.3316L68.8037 17.1296V17.1478C68.8333 19.7722 68.9131 26.6967 68.0992 33.2997C67.6431 36.9934 66.8474 41.1865 65.2947 44.6407C64.1341 47.2172 61.7515 51.0295 57.4194 52.3473V54.828C59.118 54.2261 60.8212 53.6538 62.2303 53.3004C63.1218 53.0724 64.7498 52.6985 66.4393 52.8489C67.9867 52.9723 69.4616 53.5569 70.6733 54.5271C71.523 55.219 72.207 56.0923 72.6753 57.083C73.1437 58.0736 73.3843 59.1565 73.3798 60.2523C73.3798 62.3568 72.7026 67.3569 72.1622 70.9161C71.8727 72.8268 71.5694 74.6508 71.3323 75.8889L71.3118 75.9892C71.1453 76.8557 70.8945 78.1484 70.1945 79.325V79.3272L70.19 79.3341C70.0304 79.6008 69.3121 80.8161 67.8278 81.7099C66.9177 82.258 65.8927 82.5871 64.8336 82.6711C63.7746 82.7551 62.7105 82.5917 61.7254 82.1939C60.7402 81.7961 59.8611 81.1748 59.1573 80.3789C58.4536 79.583 57.9445 78.6345 57.6702 77.6081C57.2598 76.0964 57.1389 74.5186 57.0774 73.1072C57.0563 72.6514 57.0388 72.1954 57.0249 71.7392C56.9976 70.9526 56.9748 70.2344 56.9155 69.5253C54.9879 70.2032 53.0407 70.8236 51.0763 71.3858C48.1122 72.218 44.6853 72.9727 41.459 72.9727C38.2327 72.9727 34.8081 72.2203 31.8417 71.3858C29.9089 70.8328 27.9929 70.223 26.096 69.5572L26.0504 70.1523C25.92 71.8754 25.7787 73.5976 25.6263 75.3189C25.5579 76.1557 25.4461 77.4622 24.9081 78.6523C24.4526 79.6615 23.7591 80.545 22.8869 81.227C22.0148 81.909 20.9901 82.369 19.9009 82.5677C18.8118 82.7664 17.6906 82.6977 16.6339 82.3676C15.5771 82.0375 14.6162 81.4558 13.8338 80.6725C12.1808 79.0194 11.9596 76.9605 11.8183 75.6609L11.7727 75.2642C11.7271 74.8811 11.6518 74.3795 11.5492 73.7593C11.3736 72.6718 11.1434 71.3881 10.8948 69.9927L10.7854 69.3839C10.4954 67.7943 10.2248 66.2012 9.97369 64.6049C9.76621 63.2437 9.5382 61.577 9.5382 60.2523C9.5382 58.3393 10.2883 56.1185 12.2446 54.5293C13.5708 53.4631 15.2107 52.8622 16.9119 52.8193C18.1158 52.7737 19.2604 52.9698 20.088 53.1545C20.3137 53.2046 20.5144 53.2548 20.6877 53.2981C22.0968 53.6538 23.7977 54.2261 25.4986 54.8258V52.3109C25.2133 52.2169 24.9325 52.1096 24.6573 51.9894C21.9052 50.7832 20.1177 48.4781 19.0118 46.5332C18.5578 45.735 18.1601 44.9061 17.8216 44.0525C16.5448 40.8923 15.7764 37.153 15.2771 33.7649C14.1895 26.3866 14.0983 18.5774 14.0983 16.3316C14.0983 15.5883 14.2169 14.8723 14.4358 14.2043C13.2342 14.4004 12.0143 14.6101 10.7717 14.8336L11.6131 24.7427C11.6636 25.3449 11.4729 25.9426 11.083 26.4043C10.6931 26.866 10.1358 27.1541 9.53364 27.2051L4.98949 27.5928C4.38726 27.6433 3.78962 27.4526 3.32788 27.0627C2.86615 26.6728 2.5781 26.1155 2.52703 25.5133L1.72901 16.115C1.36599 15.9459 1.05403 15.684 0.824632 15.3557C0.595234 15.0275 0.456528 14.6445 0.422525 14.2455C0.388522 13.8464 0.460424 13.4455 0.630971 13.0832C0.801519 12.7208 1.06467 12.4099 1.39384 12.1819L0.643702 3.35804C0.593193 2.75581 0.78384 2.15816 1.17375 1.69643C1.56366 1.23469 2.12093 0.946644 2.72311 0.895577L7.26726 0.507967ZM26.6409 12.5512C27.3847 13.6715 27.7805 14.9868 27.7786 16.3316C27.7786 18.395 27.8721 25.4062 28.8115 31.7698C29.2835 34.9756 29.9037 37.5292 30.59 39.1321H52.7681L52.7909 39.0797L52.8182 39.025C53.5182 37.4677 54.1179 34.9072 54.5214 31.6262C55.21 26.04 55.153 20.1051 55.1234 17.353V17.3393L55.1165 16.3316C55.1165 14.943 55.5269 13.6525 56.2383 12.574C45.9781 11.5252 36.7507 11.5206 26.6409 12.5512ZM52.8593 52.3154V50.4868C52.8593 49.9216 53.0692 49.3765 53.4484 48.9573C53.8275 48.5381 54.3489 48.2747 54.9113 48.2182C58.0168 47.9035 59.9753 45.3453 61.1359 42.7688C62.4059 39.9461 63.1355 36.2957 63.5755 32.7411C64.3485 26.4619 64.2732 19.7995 64.2436 17.1797V17.1683L64.2345 16.3316C64.2345 15.7269 63.9942 15.1469 63.5667 14.7193C63.1391 14.2917 62.5591 14.0515 61.9544 14.0515C61.3497 14.0515 60.7698 14.2917 60.3422 14.7193C59.9146 15.1469 59.6744 15.7269 59.6744 16.3316L59.6835 17.3051V17.3302C59.7108 20.0823 59.7747 26.2772 59.0473 32.1848C58.6278 35.6003 57.962 38.7058 56.977 40.8946C56.5074 41.9389 56.0491 42.632 55.5794 43.0721C55.1567 43.4701 54.5981 43.6919 54.0175 43.6922H29.2333C28.8769 43.6923 28.5253 43.6088 28.207 43.4485C27.8886 43.2881 27.6123 43.0553 27.4002 42.7688C27.018 42.2267 26.6968 41.644 26.4425 41.0314C25.4986 38.8699 24.7963 35.8101 24.2993 32.4356C23.3097 25.7322 23.2185 18.4566 23.2185 16.3316C23.2185 15.7269 22.9783 15.1469 22.5507 14.7193C22.1231 14.2917 21.5432 14.0515 20.9385 14.0515C20.3338 14.0515 19.7538 14.2917 19.3262 14.7193C18.8986 15.1469 18.6584 15.7269 18.6584 16.3316C18.6584 18.1442 18.7223 23.6437 19.3356 29.4852C19.461 30.6845 19.6092 31.9021 19.7871 33.1014C20.3023 36.5967 21.0753 40.1376 22.2678 42.86C23.3075 45.2358 25.0996 47.8944 28.0272 48.2182C28.5855 48.2794 29.1016 48.5445 29.4765 48.9627C29.8513 49.381 30.0587 49.9229 30.0587 50.4845V52.3154C30.6128 52.4819 31.3173 52.6779 32.1472 52.874C34.441 53.4121 37.6809 53.9525 41.459 53.9525C44.5931 53.9496 47.7167 53.5878 50.7685 52.874C51.6007 52.6779 52.3052 52.4819 52.8593 52.3154ZM30.0587 57.0511C33.782 58.0164 37.6126 58.5067 41.459 58.5103C45.3054 58.5066 49.1359 58.0163 52.8593 57.0511V58.0634C52.8592 58.4288 52.947 58.7888 53.1151 59.1131C53.2832 59.4375 53.5269 59.7167 53.8254 59.9272C54.124 60.1377 54.4688 60.2734 54.8308 60.3228C55.1928 60.3723 55.5613 60.334 55.9054 60.2112L57.1595 59.7621C59.4897 58.9253 61.699 58.1364 63.3452 57.7191C64.1797 57.5094 65.167 57.3133 66.0357 57.3908C66.478 57.4296 67.1757 57.5595 67.7959 58.0657C68.521 58.654 68.8197 59.4816 68.8197 60.2546C68.8197 61.935 68.2132 66.5452 67.6545 70.2321C67.4171 71.8329 67.1503 73.4292 66.8542 75.0202C66.6604 76.0189 66.5305 76.5684 66.2751 76.997L66.2637 77.0153C66.0332 77.4043 65.6928 77.7165 65.2853 77.9125C64.8777 78.1085 64.4213 78.1795 63.9735 78.1166C63.5257 78.0537 63.1065 77.8597 62.7687 77.5591C62.4309 77.2584 62.1896 76.8645 62.0753 76.427V76.4224C61.8016 75.4147 61.6922 74.2496 61.6306 72.8998C61.6143 72.5206 61.5999 72.1413 61.5873 71.762C61.5651 70.7443 61.5096 69.7276 61.4209 68.7136L61.1587 66.169C61.1225 65.8257 61.0089 65.4951 60.8264 65.2021C60.6438 64.9091 60.3971 64.6614 60.1049 64.4776C59.8127 64.2938 59.4825 64.1788 59.1394 64.1412C58.7962 64.1036 58.449 64.1445 58.1239 64.2606C55.5794 65.1727 52.6837 66.1987 49.8428 66.9967C47.0018 67.7947 44.056 68.4126 41.459 68.4126C38.862 68.4126 35.9162 67.7947 33.0752 66.9967C30.4076 66.2443 27.6897 65.2935 25.2615 64.4271L24.8123 64.2675C24.4817 64.1492 24.1283 64.1089 23.7796 64.1497C23.4309 64.1905 23.0963 64.3112 22.8019 64.5026C22.5075 64.6939 22.2613 64.9506 22.0824 65.2527C21.9036 65.5548 21.7969 65.8942 21.7707 66.2443C21.6863 67.3615 21.5951 68.5973 21.5017 69.8012C21.358 71.6549 21.2166 73.4492 21.1072 74.644L21.0981 74.7466C21.0023 75.8068 20.9544 76.3335 20.7538 76.7736L20.7401 76.8055C20.5841 77.137 20.3506 77.426 20.0593 77.6482C19.768 77.8704 19.4275 78.0192 19.0666 78.082C18.7057 78.1448 18.3349 78.1199 17.9857 78.0092C17.6364 77.8985 17.319 77.7054 17.0601 77.4462C16.5813 76.9674 16.5243 76.5159 16.3145 74.8332L16.2986 74.701C16.2268 74.1424 16.1447 73.5852 16.0523 73.0297C15.8699 71.9011 15.6328 70.5832 15.3865 69.2038L15.2725 68.5813C14.9899 67.0296 14.7262 65.4745 14.4814 63.9163C14.2693 62.5323 14.0983 61.1848 14.0983 60.2523C14.0983 59.4816 14.3947 58.6562 15.1221 58.0634C15.5575 57.71 16.0341 57.539 16.4285 57.4569C16.5973 57.4205 16.75 57.4022 16.88 57.3885C17.751 57.3133 18.7382 57.5094 19.5704 57.7191C19.9809 57.824 20.4232 57.9472 20.8929 58.0931C22.2153 58.4989 23.7635 59.0461 25.38 59.6253L27.0125 60.2112C27.3566 60.334 27.7252 60.3723 28.0872 60.3228C28.4492 60.2734 28.794 60.1377 29.0925 59.9272C29.3911 59.7167 29.6347 59.4375 29.8029 59.1131C29.971 58.7888 30.0588 58.4288 30.0587 58.0634V57.0511Z" fill="#E8E9EB"/>
</g>
<defs>
<clipPath id="clip0_395_443">
<rect width="82" height="82" fill="white" transform="translate(0.5 0.5)"/>
</clipPath>
</defs>
</svg>
