<svg width="22" height="22" viewBox="0 0 22 22" fill="none" xmlns="http://www.w3.org/2000/svg">
<path d="M5.11845 17.7225C7.4775 17.7225 9.39596 15.804 9.39596 13.445V2.59616L19.0203 6.09516V14.0406C18.3732 13.6551 17.6348 13.4494 16.8816 13.445C14.5225 13.445 12.6041 15.3634 12.6041 17.7225C12.6041 20.0815 14.5225 22 16.8816 22C19.2406 22 21.1591 20.0815 21.1591 17.7225V5.34659C21.1593 5.12719 21.0918 4.91307 20.9659 4.73339C20.84 4.55371 20.6617 4.4172 20.4555 4.34245L8.69231 0.0649428C8.53082 0.00590997 8.35748 -0.0132748 8.18699 0.00901825C8.01651 0.0313113 7.85393 0.0944234 7.71305 0.192994C7.57218 0.291564 7.45717 0.422679 7.37781 0.575203C7.29845 0.727727 7.25708 0.897152 7.2572 1.06909V9.76312C6.61009 9.37756 5.8717 9.17192 5.11845 9.16748C2.7594 9.16748 0.840942 11.0859 0.840942 13.445C0.840942 15.804 2.7594 17.7225 5.11845 17.7225Z" fill="#E8E9EB"/>
</svg>
