<svg width="22" height="22" viewBox="0 0 22 22" fill="none" xmlns="http://www.w3.org/2000/svg">
<path d="M11 0C9.85498 0 8.73565 0.339547 7.78357 0.975702C6.8315 1.61186 6.08945 2.51605 5.65126 3.57394C5.21306 4.63183 5.09841 5.7959 5.3218 6.91894C5.54519 8.04199 6.09658 9.07358 6.90626 9.88325C7.71593 10.6929 8.74751 11.2443 9.87056 11.4677C10.9936 11.6911 12.1577 11.5764 13.2156 11.1383C14.2735 10.7001 15.1776 9.95801 15.8138 9.00593C16.45 8.05386 16.7895 6.93452 16.7895 5.78947C16.7895 4.25401 16.1795 2.78143 15.0938 1.6957C14.0081 0.609961 12.5355 0 11 0ZM11 9.26316C10.313 9.26316 9.6414 9.05943 9.07016 8.67774C8.49891 8.29604 8.05368 7.75353 7.79077 7.11879C7.52785 6.48406 7.45906 5.78562 7.59309 5.11179C7.72713 4.43796 8.05796 3.81901 8.54377 3.33321C9.02957 2.8474 9.64852 2.51657 10.3223 2.38254C10.9962 2.2485 11.6946 2.31729 12.3294 2.58021C12.9641 2.84312 13.5066 3.28835 13.8883 3.8596C14.27 4.43084 14.4737 5.10244 14.4737 5.78947C14.4737 6.71075 14.1077 7.5943 13.4563 8.24574C12.8049 8.89718 11.9213 9.26316 11 9.26316ZM21.4211 22V20.8421C21.4211 18.6925 20.5671 16.6308 19.0471 15.1108C17.5271 13.5908 15.4655 12.7368 13.3158 12.7368H8.68424C6.53459 12.7368 4.47299 13.5908 2.95296 15.1108C1.43292 16.6308 0.578979 18.6925 0.578979 20.8421V22H2.89477V20.8421C2.89477 19.3066 3.50473 17.8341 4.59047 16.7483C5.6762 15.6626 7.14878 15.0526 8.68424 15.0526H13.3158C14.8513 15.0526 16.3239 15.6626 17.4096 16.7483C18.4953 17.8341 19.1053 19.3066 19.1053 20.8421V22H21.4211Z" fill="#E8E9EB"/>
</svg>
