<svg width="26" height="16" viewBox="0 0 26 16" fill="none" xmlns="http://www.w3.org/2000/svg">
<path d="M11.1688 8.99111L11.0171 2.97875C11.0171 2.79182 10.8755 2.64893 10.7136 2.64893C10.5417 2.64893 10.4102 2.79182 10.4102 2.97875L10.2685 8.99111L10.4102 11.8818C10.4102 12.0687 10.5517 12.2116 10.7136 12.2116C10.8856 12.2116 11.0171 12.0687 11.0171 11.8818L11.1688 8.99111Z" fill="url(#paint0_linear_362_299)"/>
<path d="M10.0762 8.99113L9.90427 2.74783C9.90432 2.7074 9.89703 2.66736 9.88282 2.63C9.8686 2.59265 9.84773 2.5587 9.82142 2.53012C9.7951 2.50154 9.76386 2.47889 9.72947 2.46345C9.69508 2.44802 9.65822 2.44011 9.62101 2.44019C9.58379 2.4401 9.54691 2.448 9.5125 2.46343C9.4781 2.47887 9.44683 2.50153 9.4205 2.53012C9.39418 2.55872 9.37331 2.59268 9.35909 2.63005C9.34487 2.66743 9.33759 2.70749 9.33765 2.74794L9.18602 8.98021L9.33775 11.8929C9.33767 11.9333 9.34495 11.9734 9.35915 12.0108C9.37336 12.0481 9.39422 12.0821 9.42053 12.1107C9.44685 12.1393 9.47811 12.162 9.51251 12.1774C9.54691 12.1929 9.58379 12.2008 9.62101 12.2007C9.65825 12.2008 9.69513 12.1929 9.72954 12.1775C9.76396 12.162 9.79523 12.1394 9.82156 12.1108C9.84789 12.0822 9.86875 12.0482 9.88297 12.0108C9.89718 11.9734 9.90445 11.9333 9.90437 11.8929L10.0762 8.99113Z" fill="url(#paint1_linear_362_299)"/>
<path d="M7.71905 2.7918C7.70889 2.6489 7.60774 2.52808 7.47631 2.52808C7.34479 2.52808 7.24353 2.63798 7.23348 2.7918L7.06143 8.98005L7.23348 11.9367C7.23348 12.0796 7.34479 12.1895 7.47621 12.1895C7.60774 12.1895 7.70899 12.0796 7.71905 11.9258L7.92136 8.96901L7.71905 2.79191V2.7918Z" fill="url(#paint2_linear_362_299)"/>
<path d="M8.81166 2.58316C8.81166 2.42923 8.69029 2.29737 8.54861 2.29737C8.514 2.29711 8.47969 2.30432 8.44766 2.31859C8.41564 2.33286 8.38655 2.3539 8.36207 2.38049C8.3376 2.40708 8.31823 2.43869 8.3051 2.47348C8.29196 2.50828 8.28533 2.54556 8.28557 2.58316L8.12378 8.98019L8.28557 11.9149C8.28557 12.0689 8.40704 12.2007 8.54861 12.2007C8.69029 12.2007 8.80151 12.0798 8.81166 11.9149L8.99376 8.98019L8.81166 2.58316V2.58316Z" fill="url(#paint3_linear_362_299)"/>
<path d="M3.29803 12.1235C3.37898 12.1235 3.43971 12.0577 3.44977 11.9588L3.71282 8.98004L3.44977 5.90251C3.43961 5.81446 3.37898 5.73755 3.29803 5.73755C3.21709 5.73755 3.15646 5.80354 3.1463 5.9024L2.91362 8.98004L3.1463 11.9588C3.1463 12.0577 3.21709 12.1237 3.29803 12.1237V12.1235Z" fill="url(#paint4_linear_362_299)"/>
<path d="M12.2716 8.9912L12.1299 1.8467C12.1299 1.72576 12.0693 1.61586 11.9782 1.54987C11.9276 1.51688 11.867 1.48389 11.7961 1.48389C11.7355 1.48389 11.6747 1.50596 11.614 1.53895C11.523 1.60482 11.4622 1.71473 11.4622 1.83567V1.90165L11.3409 8.98027L11.4622 11.849V11.8601C11.4622 11.9369 11.4926 12.0139 11.5432 12.0688C11.6039 12.1457 11.6949 12.2007 11.7961 12.2007C11.8872 12.2007 11.9681 12.1568 12.0288 12.1018C12.0895 12.0358 12.1299 11.9479 12.1299 11.849L12.1401 11.5632L12.2716 8.99109V8.9912Z" fill="url(#paint5_linear_362_299)"/>
<path d="M4.50196 6.12236C4.4918 6.01246 4.42101 5.93555 4.32991 5.93555C4.23891 5.93555 4.15796 6.01246 4.15796 6.12236L3.9455 8.9803L4.15796 11.9809C4.16812 12.0908 4.23891 12.1677 4.32991 12.1677C4.42101 12.1677 4.50196 12.0908 4.50196 11.9809L4.74469 8.98019L4.50196 6.12236V6.12236Z" fill="url(#paint6_linear_362_299)"/>
<path d="M5.37195 4.12183C5.27079 4.12183 5.17979 4.20977 5.17979 4.33071L4.97748 8.98009L5.17969 11.9808C5.18985 12.1017 5.27069 12.1896 5.37185 12.1896C5.473 12.1896 5.5641 12.1017 5.5641 11.9808L5.79678 8.98009L5.5641 4.33071C5.5641 4.22081 5.473 4.12183 5.37185 4.12183H5.37195Z" fill="url(#paint7_linear_362_299)"/>
<path d="M6.62644 11.9808L6.83891 8.99116L6.62644 3.27552C6.61628 3.14366 6.52528 3.04468 6.40392 3.04468C6.28245 3.04468 6.19145 3.14366 6.18129 3.27552L5.98914 8.99116L6.18129 11.9808C6.18129 12.1127 6.28245 12.2117 6.40392 12.2117C6.52528 12.2227 6.61639 12.1127 6.62644 11.9808Z" fill="url(#paint8_linear_362_299)"/>
<path d="M13.0708 0.868296C13.0159 0.832111 12.9529 0.81306 12.8887 0.813234C12.8074 0.813878 12.7288 0.844937 12.6662 0.901178C12.5852 0.967165 12.5346 1.07707 12.5346 1.19801V1.24192L12.393 9.00192L12.4638 10.4309L12.5346 11.8268C12.5346 12.0356 12.6965 12.2005 12.8887 12.2005C13.0809 12.2005 13.2327 12.0246 13.2428 11.8158L13.3946 8.991L13.2428 1.19801C13.2327 1.05511 13.1719 0.934172 13.0708 0.868185V0.868296Z" fill="url(#paint9_linear_362_299)"/>
<path d="M0.293414 10.6288C0.343992 10.6288 0.384414 10.5848 0.39457 10.5189L0.617094 8.98006L0.39457 7.41923C0.384414 7.35335 0.343992 7.30933 0.293414 7.30933C0.266602 7.30938 0.240904 7.32098 0.221945 7.34158C0.202986 7.36218 0.192312 7.3901 0.192258 7.41923L0 8.98006L0.192258 10.5189C0.192258 10.5848 0.242836 10.6288 0.293414 10.6288V10.6288Z" fill="url(#paint10_linear_362_299)"/>
<path d="M1.25449 11.563C1.30507 11.563 1.35565 11.5191 1.3657 11.4532L1.65922 8.98006L1.3657 6.45205C1.35555 6.38607 1.31513 6.34204 1.25449 6.34204C1.20391 6.34204 1.15334 6.38607 1.14318 6.45205L0.890289 8.98006L1.14318 11.4532C1.15334 11.5191 1.19376 11.5631 1.25449 11.5631V11.563Z" fill="url(#paint11_linear_362_299)"/>
<path d="M2.26616 12.0137C2.33695 12.0137 2.38753 11.9588 2.39769 11.8709L2.67089 8.98004L2.39769 5.97932C2.38753 5.90241 2.33695 5.83643 2.26616 5.83643C2.19538 5.83643 2.1448 5.89138 2.13464 5.97932L1.89191 8.98004L2.13464 11.8709C2.1448 11.9478 2.19538 12.0137 2.26616 12.0137V12.0137Z" fill="url(#paint12_linear_362_299)"/>
<path d="M22.712 5.29788C22.277 5.29788 21.8622 5.39686 21.4778 5.56171C21.2249 2.45109 18.8171 0 15.8833 0C15.1874 0.000573574 14.4978 0.142216 13.8498 0.417655C13.607 0.516634 13.5463 0.626538 13.5463 0.824386V11.8049C13.5463 12.0138 13.698 12.1786 13.8903 12.2006H22.7222C24.4825 12.2006 25.909 10.6728 25.909 8.76028C25.8989 6.84778 24.4724 5.29788 22.712 5.29788V5.29788Z" fill="url(#paint13_linear_362_299)"/>
<path d="M2.53926 14.2891C2.165 14.1902 2.06385 14.1462 2.06385 13.9813C2.06385 13.8714 2.14479 13.7505 2.39768 13.7505C2.61015 13.7505 2.7821 13.8495 2.93393 14.0142L3.27782 13.6516C3.0552 13.3988 2.7821 13.2449 2.4179 13.2449C1.95254 13.2449 1.57818 13.5307 1.57818 13.9923C1.57818 14.4979 1.88175 14.6518 2.31674 14.7507C2.76189 14.8607 2.84283 14.9376 2.84283 15.1024C2.84283 15.3003 2.71131 15.3772 2.42805 15.3772C2.20543 15.3772 1.99296 15.2893 1.82101 15.0805L1.47702 15.4102C1.65912 15.696 2.00311 15.8719 2.38753 15.8719C3.03499 15.8719 3.30819 15.5421 3.30819 15.0585C3.3284 14.5199 2.91362 14.377 2.53936 14.2891H2.53926ZM4.71443 13.2559C4.06697 13.2559 3.69261 13.7944 3.69261 14.5749C3.69261 15.3552 4.07702 15.8938 4.71432 15.8938C5.35173 15.8938 5.73615 15.3553 5.73615 14.5749C5.73615 13.7945 5.35173 13.2559 4.71443 13.2559ZM4.71443 15.3773C4.32991 15.3773 4.17818 15.0255 4.17818 14.5638C4.17818 14.1023 4.34007 13.7506 4.71443 13.7506C5.09884 13.7506 5.25068 14.1023 5.25068 14.5638C5.25068 15.0255 5.08868 15.3773 4.71443 15.3773ZM7.63811 14.7288C7.63811 15.1354 7.45601 15.3882 7.15254 15.3882C6.84907 15.3882 6.66697 15.1245 6.66697 14.7178V13.2888H6.19145V14.7288C6.19145 15.4762 6.57586 15.8938 7.14238 15.8938C7.73926 15.8938 8.09341 15.4652 8.09341 14.7288V13.2998H7.6179V14.7288H7.63821H7.63811ZM10.1369 14.377C10.1369 14.5199 10.1471 14.8387 10.1471 14.9376C10.1166 14.8717 10.0358 14.7397 9.98522 14.6518L9.1455 13.2998H8.69029V15.8609H9.15565V14.7288C9.15565 14.5859 9.1455 14.2671 9.1455 14.1682C9.17597 14.2341 9.25681 14.366 9.30739 14.454L10.1673 15.8499H10.5923V13.2888H10.1268V14.377H10.1369ZM11.9478 13.2889H11.2093V15.8499H11.9074C12.5144 15.8499 13.1113 15.4652 13.1113 14.5749C13.1113 13.6296 12.6156 13.2889 11.9478 13.2889V13.2889ZM11.9074 15.3552H11.6747V13.7945H11.9276C12.4233 13.7945 12.6358 14.0582 12.6358 14.5749C12.6358 15.0365 12.4031 15.3552 11.9074 15.3552ZM14.5681 13.7615C14.7806 13.7615 14.912 13.8604 15.0031 14.0363L15.4381 13.8165C15.2864 13.4867 15.0233 13.2449 14.5782 13.2449C13.9611 13.2449 13.5361 13.7835 13.5361 14.5638C13.5361 15.3663 13.9509 15.8829 14.568 15.8829C14.993 15.8829 15.2762 15.6631 15.4381 15.3003L15.0435 15.0476C14.9222 15.2783 14.7906 15.3773 14.5782 15.3773C14.2241 15.3773 14.0218 15.0255 14.0218 14.5638C14.0218 14.0912 14.2241 13.7615 14.5681 13.7615V13.7615ZM16.3182 13.2889H15.8428V15.8499H17.2591V15.3443H16.3182V13.2889V13.2889ZM18.5035 13.2558C17.856 13.2558 17.4817 13.7945 17.4817 14.5749C17.4817 15.3552 17.8662 15.8938 18.5035 15.8938C19.1509 15.8938 19.5253 15.3553 19.5253 14.5749C19.5253 13.7945 19.1509 13.2559 18.5036 13.2559L18.5035 13.2558ZM18.5035 15.3773C18.1191 15.3773 17.9672 15.0255 17.9672 14.5638C17.9672 14.1023 18.1292 13.7506 18.5035 13.7506C18.888 13.7506 19.0397 14.1023 19.0397 14.5638C19.0397 15.0255 18.888 15.3773 18.5035 15.3773ZM21.4272 14.7288C21.4272 15.1354 21.2451 15.3882 20.9417 15.3882C20.6381 15.3882 20.456 15.1245 20.456 14.7178V13.2888H19.9806V14.7288C19.9806 15.4762 20.365 15.8938 20.9315 15.8938C21.5284 15.8938 21.8824 15.4652 21.8824 14.7288V13.2998H21.407V14.7288H21.4272V14.7288ZM23.2279 13.2888H22.4895V15.8499H23.1875C23.7946 15.8499 24.3915 15.4652 24.3915 14.5749C24.3915 13.6296 23.8957 13.2889 23.2281 13.2889L23.2279 13.2888ZM23.1875 15.3552H22.965V13.7945H23.2179C23.7135 13.7945 23.9159 14.0582 23.9159 14.5749C23.9159 15.0365 23.6834 15.3552 23.1875 15.3552Z" fill="#F04923"/>
<defs>
<linearGradient id="paint0_linear_362_299" x1="10.7161" y1="-4.02907e-05" x2="10.7161" y2="12.2197" gradientUnits="userSpaceOnUse">
<stop stop-color="#F6871F"/>
<stop offset="0.2393" stop-color="#F57E20"/>
<stop offset="0.6262" stop-color="#F36621"/>
<stop offset="1" stop-color="#F04923"/>
</linearGradient>
<linearGradient id="paint1_linear_362_299" x1="9.63297" y1="4.91142e-05" x2="9.63297" y2="12.2198" gradientUnits="userSpaceOnUse">
<stop stop-color="#F6871F"/>
<stop offset="0.2393" stop-color="#F57E20"/>
<stop offset="0.6262" stop-color="#F36621"/>
<stop offset="1" stop-color="#F04923"/>
</linearGradient>
<linearGradient id="paint2_linear_362_299" x1="7.49166" y1="5.93424e-05" x2="7.49166" y2="12.2196" gradientUnits="userSpaceOnUse">
<stop stop-color="#F6871F"/>
<stop offset="0.2393" stop-color="#F57E20"/>
<stop offset="0.6262" stop-color="#F36621"/>
<stop offset="1" stop-color="#F04923"/>
</linearGradient>
<linearGradient id="paint3_linear_362_299" x1="8.55821" y1="0.000181744" x2="8.55821" y2="12.2198" gradientUnits="userSpaceOnUse">
<stop stop-color="#F6871F"/>
<stop offset="0.2393" stop-color="#F57E20"/>
<stop offset="0.6262" stop-color="#F36621"/>
<stop offset="1" stop-color="#F04923"/>
</linearGradient>
<linearGradient id="paint4_linear_362_299" x1="3.30942" y1="-4.97511e-05" x2="3.30942" y2="12.2197" gradientUnits="userSpaceOnUse">
<stop stop-color="#F6871F"/>
<stop offset="0.2393" stop-color="#F57E20"/>
<stop offset="0.6262" stop-color="#F36621"/>
<stop offset="1" stop-color="#F04923"/>
</linearGradient>
<linearGradient id="paint5_linear_362_299" x1="11.8076" y1="3.83241e-05" x2="11.8076" y2="12.2199" gradientUnits="userSpaceOnUse">
<stop stop-color="#F6871F"/>
<stop offset="0.2393" stop-color="#F57E20"/>
<stop offset="0.6262" stop-color="#F36621"/>
<stop offset="1" stop-color="#F04923"/>
</linearGradient>
<linearGradient id="paint6_linear_362_299" x1="4.34237" y1="0.000148948" x2="4.34237" y2="12.2198" gradientUnits="userSpaceOnUse">
<stop stop-color="#F6871F"/>
<stop offset="0.2393" stop-color="#F57E20"/>
<stop offset="0.6262" stop-color="#F36621"/>
<stop offset="1" stop-color="#F04923"/>
</linearGradient>
<linearGradient id="paint7_linear_362_299" x1="5.38382" y1="1.21103e-05" x2="5.38382" y2="12.2197" gradientUnits="userSpaceOnUse">
<stop stop-color="#F6871F"/>
<stop offset="0.2393" stop-color="#F57E20"/>
<stop offset="0.6262" stop-color="#F36621"/>
<stop offset="1" stop-color="#F04923"/>
</linearGradient>
<linearGradient id="paint8_linear_362_299" x1="6.41754" y1="-3.19259e-05" x2="6.41754" y2="12.2198" gradientUnits="userSpaceOnUse">
<stop stop-color="#F6871F"/>
<stop offset="0.2393" stop-color="#F57E20"/>
<stop offset="0.6262" stop-color="#F36621"/>
<stop offset="1" stop-color="#F04923"/>
</linearGradient>
<linearGradient id="paint9_linear_362_299" x1="12.8941" y1="-0.000159432" x2="12.8941" y2="12.2196" gradientUnits="userSpaceOnUse">
<stop stop-color="#F6871F"/>
<stop offset="0.2393" stop-color="#F57E20"/>
<stop offset="0.6262" stop-color="#F36621"/>
<stop offset="1" stop-color="#F04923"/>
</linearGradient>
<linearGradient id="paint10_linear_362_299" x1="0.310553" y1="-0.000187312" x2="0.310553" y2="12.2198" gradientUnits="userSpaceOnUse">
<stop stop-color="#F6871F"/>
<stop offset="0.2393" stop-color="#F57E20"/>
<stop offset="0.6262" stop-color="#F36621"/>
<stop offset="1" stop-color="#F04923"/>
</linearGradient>
<linearGradient id="paint11_linear_362_299" x1="1.26829" y1="-0.000209184" x2="1.26829" y2="12.2197" gradientUnits="userSpaceOnUse">
<stop stop-color="#F6871F"/>
<stop offset="0.2393" stop-color="#F57E20"/>
<stop offset="0.6262" stop-color="#F36621"/>
<stop offset="1" stop-color="#F04923"/>
</linearGradient>
<linearGradient id="paint12_linear_362_299" x1="2.28469" y1="-0.000156867" x2="2.28469" y2="12.2197" gradientUnits="userSpaceOnUse">
<stop stop-color="#F6871F"/>
<stop offset="0.2393" stop-color="#F57E20"/>
<stop offset="0.6262" stop-color="#F36621"/>
<stop offset="1" stop-color="#F04923"/>
</linearGradient>
<linearGradient id="paint13_linear_362_299" x1="19.7191" y1="0" x2="19.7191" y2="12.2027" gradientUnits="userSpaceOnUse">
<stop stop-color="#F6871F"/>
<stop offset="0.2402" stop-color="#F57E20"/>
<stop offset="0.6306" stop-color="#F36621"/>
<stop offset="1" stop-color="#F04923"/>
</linearGradient>
</defs>
</svg>
