<svg width="48" height="15" viewBox="0 0 48 15" fill="none" xmlns="http://www.w3.org/2000/svg">
<path d="M7.46766 0C3.3435 0 0 3.35795 0 7.50005C0 11.6423 3.3435 15 7.46766 15C11.5923 15 14.9354 11.6423 14.9354 7.50005C14.9354 3.35823 11.5924 0 7.46766 0ZM10.8923 10.8172C10.8605 10.8697 10.8186 10.9153 10.7692 10.9515C10.7197 10.9877 10.6637 11.0137 10.6042 11.0281C10.5447 11.0425 10.483 11.045 10.4226 11.0354C10.3621 11.0258 10.3042 11.0043 10.252 10.9722C8.49872 9.89655 6.29147 9.65296 3.69206 10.2495C3.5717 10.2769 3.44539 10.2553 3.3409 10.1893C3.23641 10.1233 3.16228 10.0184 3.13481 9.89749C3.12112 9.83765 3.11932 9.77568 3.12952 9.71514C3.13971 9.65459 3.16169 9.59666 3.19421 9.54467C3.22673 9.49267 3.26914 9.44762 3.31902 9.41211C3.36889 9.3766 3.42526 9.35133 3.48488 9.33773C6.32953 8.68493 8.76956 8.96599 10.738 10.1742C10.7902 10.2063 10.8356 10.2483 10.8716 10.298C10.9076 10.3476 10.9335 10.4039 10.9479 10.4637C10.9622 10.5234 10.9646 10.5854 10.9551 10.6461C10.9456 10.7067 10.9243 10.7648 10.8923 10.8172ZM11.8064 8.77504C11.6377 9.05017 11.2793 9.13708 11.0055 8.96778C8.99831 7.72866 5.93841 7.36973 3.56419 8.09362C3.4164 8.13854 3.2569 8.12275 3.12068 8.04971C2.98447 7.97666 2.88267 7.85233 2.83763 7.70399C2.79307 7.55558 2.80892 7.39549 2.88169 7.25879C2.95446 7.1221 3.07822 7.01995 3.22584 6.97474C5.93794 6.14822 9.30947 6.54858 11.6146 7.97121C11.8883 8.14051 11.975 8.50047 11.8064 8.77504ZM11.8848 6.64848C9.47813 5.21277 5.50706 5.08076 3.20916 5.78129C2.84016 5.89372 2.44997 5.6845 2.33822 5.31389C2.28446 5.13585 2.30329 4.94366 2.39057 4.77956C2.47786 4.61546 2.62645 4.49289 2.80369 4.43879C5.44153 3.63449 9.82669 3.78985 12.5977 5.44204C12.6766 5.48896 12.7456 5.55107 12.8006 5.62481C12.8557 5.69855 12.8957 5.78247 12.9184 5.87176C12.9411 5.96105 12.946 6.05396 12.9329 6.14517C12.9198 6.23638 12.8889 6.3241 12.842 6.4033C12.6458 6.73662 12.2156 6.8464 11.8848 6.64848ZM20.317 6.92361C19.0276 6.61478 18.7985 6.39812 18.7985 5.94268C18.7985 5.51238 19.2015 5.22284 19.8016 5.22284C20.383 5.22284 20.9591 5.44279 21.5637 5.89541C21.5815 5.90906 21.6047 5.91452 21.627 5.91095C21.6382 5.90934 21.649 5.90544 21.6587 5.8995C21.6683 5.89356 21.6767 5.88569 21.6832 5.87639L22.3128 4.98509C22.3252 4.96743 22.3305 4.94566 22.3275 4.92423C22.3245 4.9028 22.3135 4.88332 22.2968 4.86975C21.5771 4.29002 20.7674 4.0082 19.8203 4.0082C18.4283 4.0082 17.4555 4.84724 17.4555 6.04785C17.4555 7.33527 18.2946 7.79118 19.7446 8.14305C20.9779 8.42844 21.1865 8.66751 21.1865 9.09499C21.1865 9.56879 20.7655 9.86341 20.0879 9.86341C19.3353 9.86341 18.7208 9.60824 18.0342 9.01166C18.0171 8.99715 17.9951 8.9898 17.9727 8.99113C17.9616 8.99189 17.9507 8.99489 17.9407 8.99995C17.9308 9.00502 17.9219 9.01204 17.9147 9.0206L17.2085 9.86426C17.1943 9.88117 17.1872 9.90296 17.1887 9.92502C17.1902 9.94709 17.2002 9.9677 17.2165 9.98252C18.0155 10.6991 18.9982 11.077 20.0593 11.077C21.5593 11.077 22.5286 10.2539 22.5286 8.97946C22.5312 7.90408 21.8902 7.30853 20.3198 6.92484L20.317 6.92361ZM25.9225 5.64646C25.2725 5.64646 24.7392 5.9037 24.2987 6.43079V5.8376C24.2987 5.79071 24.2612 5.75257 24.2149 5.75257H23.0601C23.0377 5.7527 23.0164 5.76171 23.0007 5.77763C22.985 5.79355 22.9762 5.81509 22.9762 5.8375V12.4294C22.9762 12.4759 23.0137 12.5144 23.0601 12.5144H24.2149C24.2372 12.5142 24.2585 12.5052 24.2742 12.4893C24.29 12.4733 24.2987 12.4518 24.2987 12.4294V10.3488C24.7392 10.8441 25.2725 11.0868 25.9224 11.0868C27.1309 11.0868 28.3543 10.1528 28.3543 8.36696C28.3561 6.58078 27.1317 5.64646 25.9225 5.64646ZM27.0113 8.36696C27.0113 9.27586 26.454 9.91086 25.655 9.91086C24.8658 9.91086 24.2701 9.24724 24.2701 8.36696C24.2701 7.48658 24.8658 6.82305 25.655 6.82305C26.4406 6.82305 27.0113 7.47218 27.0113 8.36696ZM31.4888 5.64646C29.9327 5.64646 28.7137 6.84979 28.7137 8.38645C28.7137 9.90644 29.9246 11.0967 31.47 11.0967C33.0314 11.0967 34.254 9.89749 34.254 8.36696C34.254 6.8416 33.0395 5.64646 31.4888 5.64646ZM31.4888 9.91981C30.6612 9.91981 30.037 9.25167 30.037 8.36649C30.037 7.47726 30.6398 6.8319 31.47 6.8319C32.3029 6.8319 32.9306 7.49976 32.9306 8.38588C32.9306 9.27502 32.3243 9.91981 31.4888 9.91981ZM37.5766 5.75257H36.3059V4.44802C36.3059 4.40122 36.2684 4.36309 36.2221 4.36309H35.0672C35.0448 4.36313 35.0233 4.37209 35.0074 4.388C34.9915 4.40392 34.9825 4.42549 34.9824 4.44802V5.75257H34.4278C34.4055 5.7527 34.3841 5.76171 34.3684 5.77763C34.3527 5.79355 34.3439 5.81509 34.344 5.8375V6.83407C34.3439 6.8565 34.3527 6.87804 34.3684 6.89397C34.3841 6.90991 34.4055 6.91894 34.4278 6.91909H34.9824V9.49808C34.9824 10.5396 35.4988 11.0681 36.5181 11.0681C36.9318 11.0681 37.2751 10.982 37.5988 10.7975C37.6119 10.7903 37.6228 10.7797 37.6303 10.7668C37.6379 10.7538 37.6418 10.7391 37.6417 10.7241V9.77471C37.6416 9.76034 37.6379 9.74622 37.6309 9.7337C37.6238 9.72117 37.6137 9.71066 37.6015 9.70315C37.5894 9.69532 37.5754 9.69085 37.561 9.69021C37.5465 9.68956 37.5322 9.69276 37.5194 9.69948C37.2974 9.81153 37.0825 9.86341 36.8417 9.86341C36.4717 9.86341 36.3058 9.69411 36.3058 9.31616V6.91966H37.5765C37.5988 6.91953 37.6202 6.91051 37.6359 6.89457C37.6516 6.87862 37.6604 6.85707 37.6603 6.83463V5.83807C37.6607 5.82695 37.6588 5.81587 37.6548 5.8055C37.6508 5.79513 37.6448 5.78568 37.637 5.77773C37.6293 5.76978 37.62 5.7635 37.6097 5.75925C37.5995 5.75501 37.5877 5.75243 37.5766 5.75257ZM42.0032 5.75766V5.5974C42.0032 5.12605 42.1833 4.91589 42.5863 4.91589C42.8273 4.91589 43.0207 4.96391 43.2374 5.03641C43.2501 5.04069 43.2636 5.04186 43.2769 5.03982C43.2901 5.03778 43.3026 5.03259 43.3135 5.02468C43.3243 5.01678 43.3331 5.00638 43.3391 4.99437C43.3451 4.98235 43.3482 4.96907 43.348 4.95562L43.3479 3.97854C43.3482 3.96029 43.3425 3.94246 43.3317 3.92777C43.3209 3.91307 43.3056 3.9023 43.2882 3.8971C43.0599 3.82874 42.7674 3.75869 42.3287 3.75869C41.263 3.75869 40.6986 4.36177 40.6986 5.50211V5.74749H40.1439C40.1215 5.74754 40.1 5.75649 40.0841 5.77241C40.0683 5.78832 40.0593 5.80989 40.0592 5.83242V6.83407C40.0592 6.88087 40.0976 6.91909 40.1439 6.91909H40.6986V10.896C40.6986 10.9435 40.737 10.9812 40.7833 10.9812H41.9372C41.9844 10.9812 42.0219 10.9435 42.0219 10.896V6.91938H43.1001L44.7516 10.896C44.5643 11.3134 44.3797 11.3967 44.1281 11.3967C43.9249 11.3967 43.71 11.3358 43.4916 11.2149C43.4708 11.2044 43.4469 11.2022 43.4246 11.2086C43.4136 11.2124 43.4035 11.2183 43.3949 11.2262C43.3863 11.2341 43.3794 11.2436 43.3747 11.2543L42.9833 12.1168C42.9742 12.1364 42.973 12.1587 42.9798 12.1792C42.9866 12.1996 43.0009 12.2167 43.0198 12.227C43.4282 12.4491 43.7964 12.544 44.2522 12.544C45.1046 12.544 45.5764 12.1446 45.991 11.0716L47.9939 5.87375C47.9991 5.8609 48.001 5.84695 47.9995 5.83316C47.9979 5.81937 47.9929 5.8062 47.985 5.79485C47.9775 5.78347 47.9673 5.77415 47.9553 5.76771C47.9433 5.76127 47.9299 5.75791 47.9163 5.75794H46.7142C46.6966 5.75784 46.6794 5.76328 46.665 5.77349C46.6506 5.78371 46.6398 5.79819 46.634 5.8149L45.4025 9.34667L44.0542 5.81255C44.0481 5.79654 44.0374 5.78275 44.0234 5.77299C44.0094 5.76324 43.9927 5.75799 43.9757 5.75794L42.0032 5.75766ZM39.4368 5.75257H38.282C38.2596 5.75267 38.2381 5.76165 38.2223 5.77755C38.2064 5.79345 38.1974 5.815 38.1973 5.8375V10.896C38.1973 10.9435 38.2357 10.9812 38.282 10.9812H39.4368C39.4832 10.9812 39.5215 10.9435 39.5215 10.896V5.83788C39.5216 5.82669 39.5194 5.81561 39.5152 5.80528C39.5109 5.79494 39.5047 5.78554 39.4968 5.77764C39.4889 5.76974 39.4795 5.76348 39.4693 5.75922C39.459 5.75497 39.4479 5.75252 39.4368 5.75257ZM38.866 3.4491C38.4085 3.4491 38.0377 3.82102 38.0377 4.28032C38.0376 4.38958 38.0591 4.49777 38.1007 4.59872C38.1423 4.69967 38.2033 4.79139 38.2803 4.86865C38.3572 4.9459 38.4485 5.00719 38.549 5.04899C38.6495 5.0908 38.7572 5.11231 38.866 5.1123C39.3235 5.1123 39.6936 4.74 39.6936 4.28032C39.6935 4.0599 39.6063 3.84852 39.4511 3.69264C39.296 3.53677 39.0855 3.44917 38.866 3.4491Z" fill="#1ED760"/>
</svg>
