<svg width="20" height="20" viewBox="0 0 20 20" fill="none" xmlns="http://www.w3.org/2000/svg">
<path d="M12.571 13.0044L13.429 14.8494C13.429 14.8494 17.286 15.6684 17.286 17.6164C17.286 19.0004 15.57 19.0004 15.57 19.0004H11L8.75 17.7504" stroke="#E8E9EB" stroke-width="1.5" stroke-linecap="round" stroke-linejoin="round"/>
<path d="M7.42899 13.0044L6.57199 14.8494C6.57199 14.8494 2.71399 15.6684 2.71399 17.6164C2.71399 19.0004 4.42999 19.0004 4.42999 19.0004H6.49999L8.74999 17.7504L11.5 16.0004" stroke="#E8E9EB" stroke-width="1.5" stroke-linecap="round" stroke-linejoin="round"/>
<path d="M1 13.9262C1 13.9262 3.143 13.4652 4.429 13.0042C5.714 6.54624 9.57 7.00724 10 7.00724C10.429 7.00724 14.286 6.54624 15.571 13.0042C16.857 13.4642 19 13.9262 19 13.9262H1ZM10 5.00024C10.5304 5.00024 11.0391 4.78953 11.4142 4.41446C11.7893 4.03939 12 3.53068 12 3.00024C12 2.46981 11.7893 1.9611 11.4142 1.58603C11.0391 1.21096 10.5304 1.00024 10 1.00024C9.46957 1.00024 8.96086 1.21096 8.58579 1.58603C8.21071 1.9611 8 2.46981 8 3.00024C8 3.53068 8.21071 4.03939 8.58579 4.41446C8.96086 4.78953 9.46957 5.00024 10 5.00024Z" stroke="#E8E9EB" stroke-width="1.5" stroke-linecap="round" stroke-linejoin="round"/>
</svg>
